<svg id="Layer_1" data-name="Layer 1" xmlns="http://www.w3.org/2000/svg" width="60" height="20" viewBox="0 0 60 20"><title>sketchArtboard 1</title><path d="M5.14,12.58V17H1.89V3.35H7.58a6.8,6.8,0,0,1,2.22.34,5.23,5.23,0,0,1,1.73,1,4.19,4.19,0,0,1,1.11,1.49A4.63,4.63,0,0,1,13,8.07a4.17,4.17,0,0,1-.39,1.81,4,4,0,0,1-1.11,1.42,5.34,5.34,0,0,1-1.73.94,6.8,6.8,0,0,1-2.22.34Zm0-2.6H7.58a2.45,2.45,0,0,0,.93-.16,1.87,1.87,0,0,0,.68-.42,1.72,1.72,0,0,0,.57-1.31,2.48,2.48,0,0,0-.14-.82,2.12,2.12,0,0,0-.43-.68,2,2,0,0,0-.68-.46A2.45,2.45,0,0,0,7.58,6H5.14Z"/><path d="M21.63,12.23H19.39V17H16.12V3.35h5.62A8.54,8.54,0,0,1,24,3.61a5.32,5.32,0,0,1,1.74.77,3.53,3.53,0,0,1,1.12,1.28,3.79,3.79,0,0,1,.4,1.8A4.69,4.69,0,0,1,27,8.88,3.61,3.61,0,0,1,26.5,10a3.71,3.71,0,0,1-.82.81,6.74,6.74,0,0,1-1.06.59l3.13,5.51V17h-3.5ZM19.39,9.62h2.35a2.6,2.6,0,0,0,1.62-.47A1.58,1.58,0,0,0,24,7.8a1.57,1.57,0,0,0-.59-1.35A2.65,2.65,0,0,0,21.74,6H19.39Z"/><path d="M40.38,11.21H34v3.2h7.44V17H30.68V3.35H41.46V6H34V8.6h6.43Z"/><path d="M50.39,13.24l.16.75.16-.73L54,3.35H57.4L52.3,17H48.81L43.73,3.35h3.44Z"/></svg>