<svg width="113" height="45" viewBox="0 0 113 45" fill="none" xmlns="http://www.w3.org/2000/svg">
<path d="M62.5 9.62744H112V43.8471H1V9.62744H49.5" stroke="black"/>
<path d="M24.1406 29.7451H20.5781L19.9531 31.4717H17.7344L21.2891 22.3701H23.3984L27 31.4717H24.7891L24.1406 29.7451ZM21.1562 28.1514H23.5469L22.3359 24.9014L21.1562 28.1514ZM35.6953 22.3701V28.2998C35.6953 28.8311 35.6042 29.3024 35.4219 29.7139C35.2448 30.1201 34.9948 30.4639 34.6719 30.7451C34.3542 31.0264 33.9714 31.2399 33.5234 31.3857C33.0807 31.5264 32.5911 31.5967 32.0547 31.5967C31.5182 31.5967 31.026 31.5264 30.5781 31.3857C30.1302 31.2399 29.7448 31.0264 29.4219 30.7451C29.099 30.4639 28.8464 30.1201 28.6641 29.7139C28.487 29.3024 28.3984 28.8311 28.3984 28.2998V22.3701H30.5625V28.2998C30.5677 28.8415 30.6979 29.2373 30.9531 29.4873C31.2135 29.7321 31.5807 29.8545 32.0547 29.8545C32.5286 29.8545 32.888 29.7321 33.1328 29.4873C33.3828 29.2373 33.5078 28.8415 33.5078 28.2998L33.5156 22.3701H35.6953ZM45.9844 24.1123H42.7734V31.4717H40.5781V24.1123H37.4375V22.3701H45.9844V24.1123ZM55.1641 27.6904C55.1641 28.2477 55.0677 28.766 54.875 29.2451C54.6823 29.7191 54.4115 30.1305 54.0625 30.4795C53.7135 30.8285 53.2943 31.1019 52.8047 31.2998C52.3203 31.4977 51.7839 31.5967 51.1953 31.5967C50.5911 31.5967 50.0443 31.4977 49.5547 31.2998C49.0651 31.1019 48.6458 30.8285 48.2969 30.4795C47.9479 30.1305 47.6771 29.7191 47.4844 29.2451C47.2969 28.766 47.2031 28.2477 47.2031 27.6904V26.167C47.2031 25.6097 47.2969 25.0915 47.4844 24.6123C47.6719 24.1331 47.9401 23.7191 48.2891 23.3701C48.638 23.016 49.0547 22.7399 49.5391 22.542C50.0286 22.3441 50.5755 22.2451 51.1797 22.2451C51.7682 22.2451 52.3047 22.3441 52.7891 22.542C53.2786 22.7399 53.6979 23.016 54.0469 23.3701C54.401 23.7191 54.6745 24.1331 54.8672 24.6123C55.0651 25.0915 55.1641 25.6097 55.1641 26.167V27.6904ZM52.9844 26.1592C52.9844 25.8467 52.9453 25.5576 52.8672 25.292C52.7891 25.0264 52.6719 24.7946 52.5156 24.5967C52.3646 24.3988 52.1771 24.2451 51.9531 24.1357C51.7292 24.0212 51.4714 23.9639 51.1797 23.9639C50.8672 23.9639 50.599 24.0212 50.375 24.1357C50.151 24.2451 49.9661 24.3988 49.8203 24.5967C49.6745 24.7946 49.5651 25.029 49.4922 25.2998C49.4245 25.5654 49.3906 25.8519 49.3906 26.1592V27.6904C49.3906 27.9977 49.4245 28.2868 49.4922 28.5576C49.5651 28.8232 49.6745 29.055 49.8203 29.2529C49.9714 29.4508 50.1589 29.6097 50.3828 29.7295C50.612 29.8441 50.8828 29.9014 51.1953 29.9014C51.4818 29.9014 51.737 29.8441 51.9609 29.7295C52.1849 29.6149 52.3724 29.4587 52.5234 29.2607C52.6745 29.0576 52.7891 28.8232 52.8672 28.5576C52.9453 28.2868 52.9844 27.9977 52.9844 27.6904V26.1592ZM69.0391 28.5264V31.4717H66.8672V22.3701H70.6641C71.2057 22.3701 71.6979 22.4482 72.1406 22.6045C72.5885 22.7555 72.9714 22.9717 73.2891 23.2529C73.612 23.529 73.8594 23.8597 74.0312 24.2451C74.2083 24.6305 74.2969 25.055 74.2969 25.5186C74.2969 25.9561 74.2083 26.3597 74.0312 26.7295C73.8594 27.0941 73.612 27.4092 73.2891 27.6748C72.9714 27.9404 72.5885 28.1488 72.1406 28.2998C71.6979 28.4508 71.2057 28.5264 70.6641 28.5264H69.0391ZM69.0391 26.792H70.6641C70.8984 26.792 71.1042 26.7581 71.2812 26.6904C71.4635 26.6175 71.6146 26.5238 71.7344 26.4092C71.8594 26.2894 71.9531 26.154 72.0156 26.0029C72.0833 25.8519 72.1172 25.6956 72.1172 25.5342C72.1172 25.3415 72.0833 25.1592 72.0156 24.9873C71.9531 24.8154 71.8594 24.6644 71.7344 24.5342C71.6146 24.404 71.4635 24.3024 71.2812 24.2295C71.1042 24.1514 70.8984 24.1123 70.6641 24.1123H69.0391V26.792ZM80.0391 28.292H78.5469V31.4717H76.3672V22.3701H80.1094C80.6458 22.3701 81.138 22.4274 81.5859 22.542C82.0339 22.6566 82.4193 22.8285 82.7422 23.0576C83.0651 23.2868 83.3151 23.5732 83.4922 23.917C83.6693 24.2555 83.7578 24.654 83.7578 25.1123C83.7578 25.4717 83.7161 25.7894 83.6328 26.0654C83.5495 26.3363 83.4323 26.5758 83.2812 26.7842C83.1302 26.9873 82.9479 27.1644 82.7344 27.3154C82.5208 27.4665 82.2865 27.5993 82.0312 27.7139L84.1172 31.3857V31.4717H81.7812L80.0391 28.292ZM78.5469 26.5498H80.1094C80.5677 26.5446 80.9271 26.443 81.1875 26.2451C81.4531 26.042 81.5885 25.7399 81.5938 25.3389C81.5938 24.9378 81.4609 24.6383 81.1953 24.4404C80.9297 24.2373 80.5677 24.1357 80.1094 24.1357H78.5469V26.5498ZM93.6016 27.6904C93.6016 28.2477 93.5052 28.766 93.3125 29.2451C93.1198 29.7191 92.849 30.1305 92.5 30.4795C92.151 30.8285 91.7318 31.1019 91.2422 31.2998C90.7578 31.4977 90.2214 31.5967 89.6328 31.5967C89.0286 31.5967 88.4818 31.4977 87.9922 31.2998C87.5026 31.1019 87.0833 30.8285 86.7344 30.4795C86.3854 30.1305 86.1146 29.7191 85.9219 29.2451C85.7344 28.766 85.6406 28.2477 85.6406 27.6904V26.167C85.6406 25.6097 85.7344 25.0915 85.9219 24.6123C86.1094 24.1331 86.3776 23.7191 86.7266 23.3701C87.0755 23.016 87.4922 22.7399 87.9766 22.542C88.4661 22.3441 89.013 22.2451 89.6172 22.2451C90.2057 22.2451 90.7422 22.3441 91.2266 22.542C91.7161 22.7399 92.1354 23.016 92.4844 23.3701C92.8385 23.7191 93.112 24.1331 93.3047 24.6123C93.5026 25.0915 93.6016 25.6097 93.6016 26.167V27.6904ZM91.4219 26.1592C91.4219 25.8467 91.3828 25.5576 91.3047 25.292C91.2266 25.0264 91.1094 24.7946 90.9531 24.5967C90.8021 24.3988 90.6146 24.2451 90.3906 24.1357C90.1667 24.0212 89.9089 23.9639 89.6172 23.9639C89.3047 23.9639 89.0365 24.0212 88.8125 24.1357C88.5885 24.2451 88.4036 24.3988 88.2578 24.5967C88.112 24.7946 88.0026 25.029 87.9297 25.2998C87.862 25.5654 87.8281 25.8519 87.8281 26.1592V27.6904C87.8281 27.9977 87.862 28.2868 87.9297 28.5576C88.0026 28.8232 88.112 29.055 88.2578 29.2529C88.4089 29.4508 88.5964 29.6097 88.8203 29.7295C89.0495 29.8441 89.3203 29.9014 89.6328 29.9014C89.9193 29.9014 90.1745 29.8441 90.3984 29.7295C90.6224 29.6149 90.8099 29.4587 90.9609 29.2607C91.112 29.0576 91.2266 28.8232 91.3047 28.5576C91.3828 28.2868 91.4219 27.9977 91.4219 27.6904V26.1592Z" fill="black"/>
<path d="M56.0469 0L63.4194 9.85652L63.0558 10.1165H62.375L56.0469 1.65628L49.7188 10.1165H49.0379L48.6743 9.85652L56.0469 0Z" fill="black"/>
</svg>
