<svg width="111" height="44" viewBox="0 0 111 44" fill="none" xmlns="http://www.w3.org/2000/svg">
<rect y="9" width="111" height="35" fill="black"/>
<path d="M23.1406 30.2734H19.5781L18.9531 32H16.7344L20.2891 22.8984H22.3984L26 32H23.7891L23.1406 30.2734ZM20.1562 28.6797H22.5469L21.3359 25.4297L20.1562 28.6797ZM34.6953 22.8984V28.8281C34.6953 29.3594 34.6042 29.8307 34.4219 30.2422C34.2448 30.6484 33.9948 30.9922 33.6719 31.2734C33.3542 31.5547 32.9714 31.7682 32.5234 31.9141C32.0807 32.0547 31.5911 32.125 31.0547 32.125C30.5182 32.125 30.026 32.0547 29.5781 31.9141C29.1302 31.7682 28.7448 31.5547 28.4219 31.2734C28.099 30.9922 27.8464 30.6484 27.6641 30.2422C27.487 29.8307 27.3984 29.3594 27.3984 28.8281V22.8984H29.5625V28.8281C29.5677 29.3698 29.6979 29.7656 29.9531 30.0156C30.2135 30.2604 30.5807 30.3828 31.0547 30.3828C31.5286 30.3828 31.888 30.2604 32.1328 30.0156C32.3828 29.7656 32.5078 29.3698 32.5078 28.8281L32.5156 22.8984H34.6953ZM44.9844 24.6406H41.7734V32H39.5781V24.6406H36.4375V22.8984H44.9844V24.6406ZM54.1641 28.2188C54.1641 28.776 54.0677 29.2943 53.875 29.7734C53.6823 30.2474 53.4115 30.6589 53.0625 31.0078C52.7135 31.3568 52.2943 31.6302 51.8047 31.8281C51.3203 32.026 50.7839 32.125 50.1953 32.125C49.5911 32.125 49.0443 32.026 48.5547 31.8281C48.0651 31.6302 47.6458 31.3568 47.2969 31.0078C46.9479 30.6589 46.6771 30.2474 46.4844 29.7734C46.2969 29.2943 46.2031 28.776 46.2031 28.2188V26.6953C46.2031 26.138 46.2969 25.6198 46.4844 25.1406C46.6719 24.6615 46.9401 24.2474 47.2891 23.8984C47.638 23.5443 48.0547 23.2682 48.5391 23.0703C49.0286 22.8724 49.5755 22.7734 50.1797 22.7734C50.7682 22.7734 51.3047 22.8724 51.7891 23.0703C52.2786 23.2682 52.6979 23.5443 53.0469 23.8984C53.401 24.2474 53.6745 24.6615 53.8672 25.1406C54.0651 25.6198 54.1641 26.138 54.1641 26.6953V28.2188ZM51.9844 26.6875C51.9844 26.375 51.9453 26.0859 51.8672 25.8203C51.7891 25.5547 51.6719 25.3229 51.5156 25.125C51.3646 24.9271 51.1771 24.7734 50.9531 24.6641C50.7292 24.5495 50.4714 24.4922 50.1797 24.4922C49.8672 24.4922 49.599 24.5495 49.375 24.6641C49.151 24.7734 48.9661 24.9271 48.8203 25.125C48.6745 25.3229 48.5651 25.5573 48.4922 25.8281C48.4245 26.0938 48.3906 26.3802 48.3906 26.6875V28.2188C48.3906 28.526 48.4245 28.8151 48.4922 29.0859C48.5651 29.3516 48.6745 29.5833 48.8203 29.7812C48.9714 29.9792 49.1589 30.138 49.3828 30.2578C49.612 30.3724 49.8828 30.4297 50.1953 30.4297C50.4818 30.4297 50.737 30.3724 50.9609 30.2578C51.1849 30.1432 51.3724 29.987 51.5234 29.7891C51.6745 29.5859 51.7891 29.3516 51.8672 29.0859C51.9453 28.8151 51.9844 28.526 51.9844 28.2188V26.6875ZM68.0391 29.0547V32H65.8672V22.8984H69.6641C70.2057 22.8984 70.6979 22.9766 71.1406 23.1328C71.5885 23.2839 71.9714 23.5 72.2891 23.7812C72.612 24.0573 72.8594 24.388 73.0312 24.7734C73.2083 25.1589 73.2969 25.5833 73.2969 26.0469C73.2969 26.4844 73.2083 26.888 73.0312 27.2578C72.8594 27.6224 72.612 27.9375 72.2891 28.2031C71.9714 28.4688 71.5885 28.6771 71.1406 28.8281C70.6979 28.9792 70.2057 29.0547 69.6641 29.0547H68.0391ZM68.0391 27.3203H69.6641C69.8984 27.3203 70.1042 27.2865 70.2812 27.2188C70.4635 27.1458 70.6146 27.0521 70.7344 26.9375C70.8594 26.8177 70.9531 26.6823 71.0156 26.5312C71.0833 26.3802 71.1172 26.224 71.1172 26.0625C71.1172 25.8698 71.0833 25.6875 71.0156 25.5156C70.9531 25.3438 70.8594 25.1927 70.7344 25.0625C70.6146 24.9323 70.4635 24.8307 70.2812 24.7578C70.1042 24.6797 69.8984 24.6406 69.6641 24.6406H68.0391V27.3203ZM79.0391 28.8203H77.5469V32H75.3672V22.8984H79.1094C79.6458 22.8984 80.138 22.9557 80.5859 23.0703C81.0339 23.1849 81.4193 23.3568 81.7422 23.5859C82.0651 23.8151 82.3151 24.1016 82.4922 24.4453C82.6693 24.7839 82.7578 25.1823 82.7578 25.6406C82.7578 26 82.7161 26.3177 82.6328 26.5938C82.5495 26.8646 82.4323 27.1042 82.2812 27.3125C82.1302 27.5156 81.9479 27.6927 81.7344 27.8438C81.5208 27.9948 81.2865 28.1276 81.0312 28.2422L83.1172 31.9141V32H80.7812L79.0391 28.8203ZM77.5469 27.0781H79.1094C79.5677 27.0729 79.9271 26.9714 80.1875 26.7734C80.4531 26.5703 80.5885 26.2682 80.5938 25.8672C80.5938 25.4661 80.4609 25.1667 80.1953 24.9688C79.9297 24.7656 79.5677 24.6641 79.1094 24.6641H77.5469V27.0781ZM92.6016 28.2188C92.6016 28.776 92.5052 29.2943 92.3125 29.7734C92.1198 30.2474 91.849 30.6589 91.5 31.0078C91.151 31.3568 90.7318 31.6302 90.2422 31.8281C89.7578 32.026 89.2214 32.125 88.6328 32.125C88.0286 32.125 87.4818 32.026 86.9922 31.8281C86.5026 31.6302 86.0833 31.3568 85.7344 31.0078C85.3854 30.6589 85.1146 30.2474 84.9219 29.7734C84.7344 29.2943 84.6406 28.776 84.6406 28.2188V26.6953C84.6406 26.138 84.7344 25.6198 84.9219 25.1406C85.1094 24.6615 85.3776 24.2474 85.7266 23.8984C86.0755 23.5443 86.4922 23.2682 86.9766 23.0703C87.4661 22.8724 88.013 22.7734 88.6172 22.7734C89.2057 22.7734 89.7422 22.8724 90.2266 23.0703C90.7161 23.2682 91.1354 23.5443 91.4844 23.8984C91.8385 24.2474 92.112 24.6615 92.3047 25.1406C92.5026 25.6198 92.6016 26.138 92.6016 26.6953V28.2188ZM90.4219 26.6875C90.4219 26.375 90.3828 26.0859 90.3047 25.8203C90.2266 25.5547 90.1094 25.3229 89.9531 25.125C89.8021 24.9271 89.6146 24.7734 89.3906 24.6641C89.1667 24.5495 88.9089 24.4922 88.6172 24.4922C88.3047 24.4922 88.0365 24.5495 87.8125 24.6641C87.5885 24.7734 87.4036 24.9271 87.2578 25.125C87.112 25.3229 87.0026 25.5573 86.9297 25.8281C86.862 26.0938 86.8281 26.3802 86.8281 26.6875V28.2188C86.8281 28.526 86.862 28.8151 86.9297 29.0859C87.0026 29.3516 87.112 29.5833 87.2578 29.7812C87.4089 29.9792 87.5964 30.138 87.8203 30.2578C88.0495 30.3724 88.3203 30.4297 88.6328 30.4297C88.9193 30.4297 89.1745 30.3724 89.3984 30.2578C89.6224 30.1432 89.8099 29.987 89.9609 29.7891C90.112 29.5859 90.2266 29.3516 90.3047 29.0859C90.3828 28.8151 90.4219 28.526 90.4219 28.2188V26.6875Z" fill="white"/>
<path d="M55.0471 0L62.016 9.52941H48.0781L55.0471 0Z" fill="black"/>
</svg>
