<svg width="161" height="66" viewBox="0 0 161 66" fill="none" xmlns="http://www.w3.org/2000/svg">
<path d="M86.5 9.62744H160V64.8471H1V9.62744H73.5" stroke="black"/>
<path d="M27.1875 29.8828C27.1615 30.4401 27.0365 30.9245 26.8125 31.3359C26.5938 31.7422 26.3047 32.0781 25.9453 32.3438C25.5911 32.6094 25.1797 32.8073 24.7109 32.9375C24.2474 33.0625 23.7604 33.125 23.25 33.125C22.6562 33.125 22.112 33.0286 21.6172 32.8359C21.1224 32.6432 20.6953 32.3724 20.3359 32.0234C19.9766 31.6745 19.6953 31.2552 19.4922 30.7656C19.2943 30.276 19.1953 29.737 19.1953 29.1484V27.7656C19.1953 27.1719 19.2995 26.6302 19.5078 26.1406C19.7161 25.651 20 25.2318 20.3594 24.8828C20.7188 24.5286 21.138 24.2552 21.6172 24.0625C22.1016 23.8698 22.6198 23.7734 23.1719 23.7734C23.75 23.7734 24.276 23.8438 24.75 23.9844C25.2292 24.125 25.6432 24.3359 25.9922 24.6172C26.3411 24.8932 26.6198 25.237 26.8281 25.6484C27.0417 26.0547 27.1693 26.5234 27.2109 27.0547H25.0234C25.0234 26.5651 24.8568 26.1875 24.5234 25.9219C24.1953 25.651 23.7448 25.5156 23.1719 25.5156C22.9219 25.5156 22.6875 25.5703 22.4688 25.6797C22.25 25.7891 22.0599 25.9427 21.8984 26.1406C21.737 26.3385 21.6094 26.5755 21.5156 26.8516C21.4219 27.1224 21.375 27.4245 21.375 27.7578V29.1484C21.375 29.5078 21.4219 29.8281 21.5156 30.1094C21.6146 30.3854 21.7474 30.6198 21.9141 30.8125C22.0807 31.0052 22.276 31.1536 22.5 31.2578C22.7292 31.3568 22.9792 31.4062 23.25 31.4062C23.4792 31.4062 23.7005 31.3802 23.9141 31.3281C24.1276 31.2708 24.3151 31.1823 24.4766 31.0625C24.6432 30.9427 24.7734 30.7865 24.8672 30.5938C24.9661 30.401 25.0156 30.1641 25.0156 29.8828H27.1875ZM31.6016 31.2734H36.9531V33H29.4062V23.8984H31.6016V31.2734ZM39.3359 23.9062H45.8281V25.6719H43.6484V31.2344H45.8281V33H39.3359V31.2344H41.4609V25.6719H39.3359V23.9062ZM56.0156 29.8828C55.9896 30.4401 55.8646 30.9245 55.6406 31.3359C55.4219 31.7422 55.1328 32.0781 54.7734 32.3438C54.4193 32.6094 54.0078 32.8073 53.5391 32.9375C53.0755 33.0625 52.5885 33.125 52.0781 33.125C51.4844 33.125 50.9401 33.0286 50.4453 32.8359C49.9505 32.6432 49.5234 32.3724 49.1641 32.0234C48.8047 31.6745 48.5234 31.2552 48.3203 30.7656C48.1224 30.276 48.0234 29.737 48.0234 29.1484V27.7656C48.0234 27.1719 48.1276 26.6302 48.3359 26.1406C48.5443 25.651 48.8281 25.2318 49.1875 24.8828C49.5469 24.5286 49.9661 24.2552 50.4453 24.0625C50.9297 23.8698 51.4479 23.7734 52 23.7734C52.5781 23.7734 53.1042 23.8438 53.5781 23.9844C54.0573 24.125 54.4714 24.3359 54.8203 24.6172C55.1693 24.8932 55.4479 25.237 55.6562 25.6484C55.8698 26.0547 55.9974 26.5234 56.0391 27.0547H53.8516C53.8516 26.5651 53.6849 26.1875 53.3516 25.9219C53.0234 25.651 52.5729 25.5156 52 25.5156C51.75 25.5156 51.5156 25.5703 51.2969 25.6797C51.0781 25.7891 50.888 25.9427 50.7266 26.1406C50.5651 26.3385 50.4375 26.5755 50.3438 26.8516C50.25 27.1224 50.2031 27.4245 50.2031 27.7578V29.1484C50.2031 29.5078 50.25 29.8281 50.3438 30.1094C50.4427 30.3854 50.5755 30.6198 50.7422 30.8125C50.9089 31.0052 51.1042 31.1536 51.3281 31.2578C51.5573 31.3568 51.8073 31.4062 52.0781 31.4062C52.3073 31.4062 52.5286 31.3802 52.7422 31.3281C52.9557 31.2708 53.1432 31.1823 53.3047 31.0625C53.4714 30.9427 53.6016 30.7865 53.6953 30.5938C53.7943 30.401 53.8438 30.1641 53.8438 29.8828H56.0156ZM61.3672 29.5312L60.3594 30.5156V33H58.1797V23.8984H60.3594V27.75L61.1484 26.7188L63.4453 23.8984H66.1562L62.8359 27.9844L66.2656 33H63.6797L61.3672 29.5312ZM85.3984 25.6406H82.1875V33H79.9922V25.6406H76.8516V23.8984H85.3984V25.6406ZM94.5781 29.2188C94.5781 29.776 94.4818 30.2943 94.2891 30.7734C94.0964 31.2474 93.8255 31.6589 93.4766 32.0078C93.1276 32.3568 92.7083 32.6302 92.2188 32.8281C91.7344 33.026 91.1979 33.125 90.6094 33.125C90.0052 33.125 89.4583 33.026 88.9688 32.8281C88.4792 32.6302 88.0599 32.3568 87.7109 32.0078C87.362 31.6589 87.0911 31.2474 86.8984 30.7734C86.7109 30.2943 86.6172 29.776 86.6172 29.2188V27.6953C86.6172 27.138 86.7109 26.6198 86.8984 26.1406C87.0859 25.6615 87.3542 25.2474 87.7031 24.8984C88.0521 24.5443 88.4688 24.2682 88.9531 24.0703C89.4427 23.8724 89.9896 23.7734 90.5938 23.7734C91.1823 23.7734 91.7188 23.8724 92.2031 24.0703C92.6927 24.2682 93.112 24.5443 93.4609 24.8984C93.8151 25.2474 94.0885 25.6615 94.2812 26.1406C94.4792 26.6198 94.5781 27.138 94.5781 27.6953V29.2188ZM92.3984 27.6875C92.3984 27.375 92.3594 27.0859 92.2812 26.8203C92.2031 26.5547 92.0859 26.3229 91.9297 26.125C91.7786 25.9271 91.5911 25.7734 91.3672 25.6641C91.1432 25.5495 90.8854 25.4922 90.5938 25.4922C90.2812 25.4922 90.013 25.5495 89.7891 25.6641C89.5651 25.7734 89.3802 25.9271 89.2344 26.125C89.0885 26.3229 88.9792 26.5573 88.9062 26.8281C88.8385 27.0938 88.8047 27.3802 88.8047 27.6875V29.2188C88.8047 29.526 88.8385 29.8151 88.9062 30.0859C88.9792 30.3516 89.0885 30.5833 89.2344 30.7812C89.3854 30.9792 89.5729 31.138 89.7969 31.2578C90.026 31.3724 90.2969 31.4297 90.6094 31.4297C90.8958 31.4297 91.151 31.3724 91.375 31.2578C91.599 31.1432 91.7865 30.987 91.9375 30.7891C92.0885 30.5859 92.2031 30.3516 92.2812 30.0859C92.3594 29.8151 92.3984 29.526 92.3984 29.2188V27.6875ZM109.812 30.4922L109.922 30.9922L110.023 30.5078L112.195 23.8984H114.484L111.086 33H108.758L105.375 23.8984H107.664L109.812 30.4922ZM116.211 23.9062H122.703V25.6719H120.523V31.2344H122.703V33H116.211V31.2344H118.336V25.6719H116.211V23.9062ZM131.961 29.1406H127.672V31.2734H132.633V33H125.492V23.8984H132.68V25.6406H127.672V27.3984H131.961V29.1406ZM140.297 28.4453L140.938 23.8984H142.969L141.375 33H139.391L138.523 28.3594L137.703 33H135.719L134.109 23.8984H136.164L136.789 28.3281L137.523 23.8984H139.516L140.297 28.4453ZM32.5469 43.6406H29.3359V51H27.1406V43.6406H24V41.8984H32.5469V43.6406ZM41.1406 51H38.9766V47.4609H36.2266V51H34.0625V41.8984H36.2266V45.7188H38.9766V41.8984H41.1406V51ZM44.1406 41.9062H50.6328V43.6719H48.4531V49.2344H50.6328V51H44.1406V49.2344H46.2656V43.6719H44.1406V41.9062ZM58.8125 48.5312C58.8125 48.3698 58.7708 48.2292 58.6875 48.1094C58.6094 47.9896 58.4896 47.8828 58.3281 47.7891C58.1667 47.6901 57.9661 47.6016 57.7266 47.5234C57.487 47.4453 57.2083 47.3698 56.8906 47.2969C56.349 47.1562 55.8672 47.0156 55.4453 46.875C55.0286 46.7292 54.6771 46.5521 54.3906 46.3438C54.1042 46.1354 53.888 45.8802 53.7422 45.5781C53.5964 45.2708 53.5234 44.8906 53.5234 44.4375C53.5234 44.0104 53.6146 43.6328 53.7969 43.3047C53.9844 42.9714 54.2396 42.6927 54.5625 42.4688C54.8854 42.2396 55.263 42.0677 55.6953 41.9531C56.1328 41.8333 56.6016 41.7734 57.1016 41.7734C57.6224 41.7734 58.1094 41.8255 58.5625 41.9297C59.0156 42.0339 59.4089 42.2005 59.7422 42.4297C60.0807 42.6536 60.3464 42.9479 60.5391 43.3125C60.7318 43.6771 60.8333 44.1172 60.8438 44.6328H58.6641C58.6641 44.4557 58.625 44.2917 58.5469 44.1406C58.4688 43.9844 58.3594 43.8516 58.2188 43.7422C58.0781 43.6328 57.9141 43.5469 57.7266 43.4844C57.5391 43.4219 57.3359 43.3906 57.1172 43.3906C56.8724 43.3906 56.6562 43.4167 56.4688 43.4688C56.2812 43.5208 56.1224 43.5938 55.9922 43.6875C55.862 43.776 55.763 43.8802 55.6953 44C55.6276 44.1146 55.5938 44.2344 55.5938 44.3594C55.5938 44.5208 55.625 44.6589 55.6875 44.7734C55.75 44.8828 55.8516 44.9818 55.9922 45.0703C56.138 45.1536 56.3255 45.2318 56.5547 45.3047C56.7839 45.3776 57.0651 45.4531 57.3984 45.5312C57.9349 45.6562 58.4193 45.7969 58.8516 45.9531C59.2839 46.1042 59.651 46.2917 59.9531 46.5156C60.2552 46.7344 60.487 47.0026 60.6484 47.3203C60.8099 47.638 60.8906 48.026 60.8906 48.4844C60.8906 48.9323 60.7943 49.3229 60.6016 49.6562C60.4141 49.9844 60.151 50.2578 59.8125 50.4766C59.4792 50.6953 59.0807 50.8594 58.6172 50.9688C58.1589 51.0729 57.6589 51.125 57.1172 51.125C56.7995 51.125 56.4818 51.1042 56.1641 51.0625C55.8516 51.026 55.5495 50.9635 55.2578 50.875C54.9714 50.7812 54.7031 50.6589 54.4531 50.5078C54.2031 50.3568 53.9844 50.1719 53.7969 49.9531C53.6146 49.7344 53.4688 49.4792 53.3594 49.1875C53.2552 48.8906 53.2005 48.5495 53.1953 48.1641H55.375C55.375 48.4245 55.4219 48.6432 55.5156 48.8203C55.6146 48.9922 55.7474 49.1302 55.9141 49.2344C56.0807 49.3385 56.276 49.4141 56.5 49.4609C56.724 49.5078 56.9635 49.5312 57.2188 49.5312C57.4844 49.5312 57.7161 49.5026 57.9141 49.4453C58.112 49.388 58.276 49.3125 58.4062 49.2188C58.5417 49.125 58.6432 49.0182 58.7109 48.8984C58.7786 48.7786 58.8125 48.6562 58.8125 48.5312ZM72.6484 51V41.8984H76.2656C76.8229 41.8984 77.3307 41.9479 77.7891 42.0469C78.2526 42.1458 78.6484 42.2995 78.9766 42.5078C79.3047 42.7109 79.5573 42.9714 79.7344 43.2891C79.9167 43.6068 80.0078 43.9844 80.0078 44.4219C80.0078 44.8542 79.8932 45.2448 79.6641 45.5938C79.4349 45.9375 79.0781 46.1979 78.5938 46.375C78.8802 46.4427 79.125 46.5443 79.3281 46.6797C79.5312 46.8151 79.6979 46.974 79.8281 47.1562C79.9635 47.3385 80.0625 47.5365 80.125 47.75C80.1875 47.9583 80.2188 48.1719 80.2188 48.3906C80.2188 48.849 80.1354 49.2448 79.9688 49.5781C79.8073 49.9062 79.5703 50.1771 79.2578 50.3906C78.9453 50.599 78.5651 50.7526 78.1172 50.8516C77.6693 50.9505 77.1641 51 76.6016 51H72.6484ZM74.8281 47.1719V49.2578H76.6016C77.0755 49.2578 77.4323 49.1641 77.6719 48.9766C77.9167 48.7839 78.0391 48.5443 78.0391 48.2578C78.0391 47.9036 77.9271 47.6354 77.7031 47.4531C77.4844 47.2708 77.1458 47.1771 76.6875 47.1719H74.8281ZM74.8281 45.6953H76.4688C76.8958 45.6849 77.2266 45.6016 77.4609 45.4453C77.7005 45.2891 77.8203 45.0417 77.8203 44.7031C77.8203 44.5104 77.7865 44.349 77.7188 44.2188C77.6562 44.0833 77.5651 43.9766 77.4453 43.8984C77.3255 43.8151 77.1771 43.7552 77 43.7188C76.8281 43.6823 76.6328 43.6641 76.4141 43.6641H74.8281V45.6953ZM87.5781 49.2734H84.0156L83.3906 51H81.1719L84.7266 41.8984H86.8359L90.4375 51H88.2266L87.5781 49.2734ZM84.5938 47.6797H86.9844L85.7734 44.4297L84.5938 47.6797ZM91.8359 51V41.8984H95.3516C95.9193 41.8984 96.4531 42 96.9531 42.2031C97.4531 42.401 97.888 42.6745 98.2578 43.0234C98.6328 43.3672 98.9297 43.7786 99.1484 44.2578C99.3672 44.7318 99.4766 45.2474 99.4766 45.8047V47.1172C99.4766 47.6797 99.3672 48.1979 99.1484 48.6719C98.9297 49.1458 98.6354 49.5547 98.2656 49.8984C97.8958 50.2422 97.4661 50.513 96.9766 50.7109C96.4922 50.9036 95.9792 51 95.4375 51H91.8359ZM94.0078 43.6406V49.2734H95.4375C95.7083 49.2734 95.9557 49.224 96.1797 49.125C96.4089 49.0208 96.6042 48.8776 96.7656 48.6953C96.9323 48.5078 97.0625 48.2812 97.1562 48.0156C97.25 47.75 97.2969 47.4505 97.2969 47.1172V45.7969C97.2969 45.4896 97.25 45.2057 97.1562 44.9453C97.0677 44.6797 96.9401 44.4505 96.7734 44.2578C96.6068 44.0651 96.4036 43.9141 96.1641 43.8047C95.9245 43.6953 95.6536 43.6406 95.3516 43.6406H94.0078ZM111.086 51V41.8984H114.703C115.26 41.8984 115.768 41.9479 116.227 42.0469C116.69 42.1458 117.086 42.2995 117.414 42.5078C117.742 42.7109 117.995 42.9714 118.172 43.2891C118.354 43.6068 118.445 43.9844 118.445 44.4219C118.445 44.8542 118.331 45.2448 118.102 45.5938C117.872 45.9375 117.516 46.1979 117.031 46.375C117.318 46.4427 117.562 46.5443 117.766 46.6797C117.969 46.8151 118.135 46.974 118.266 47.1562C118.401 47.3385 118.5 47.5365 118.562 47.75C118.625 47.9583 118.656 48.1719 118.656 48.3906C118.656 48.849 118.573 49.2448 118.406 49.5781C118.245 49.9062 118.008 50.1771 117.695 50.3906C117.383 50.599 117.003 50.7526 116.555 50.8516C116.107 50.9505 115.602 51 115.039 51H111.086ZM113.266 47.1719V49.2578H115.039C115.513 49.2578 115.87 49.1641 116.109 48.9766C116.354 48.7839 116.477 48.5443 116.477 48.2578C116.477 47.9036 116.365 47.6354 116.141 47.4531C115.922 47.2708 115.583 47.1771 115.125 47.1719H113.266ZM113.266 45.6953H114.906C115.333 45.6849 115.664 45.6016 115.898 45.4453C116.138 45.2891 116.258 45.0417 116.258 44.7031C116.258 44.5104 116.224 44.349 116.156 44.2188C116.094 44.0833 116.003 43.9766 115.883 43.8984C115.763 43.8151 115.615 43.7552 115.438 43.7188C115.266 43.6823 115.07 43.6641 114.852 43.6641H113.266V45.6953ZM128.211 47.2188C128.211 47.776 128.115 48.2943 127.922 48.7734C127.729 49.2474 127.458 49.6589 127.109 50.0078C126.76 50.3568 126.341 50.6302 125.852 50.8281C125.367 51.026 124.831 51.125 124.242 51.125C123.638 51.125 123.091 51.026 122.602 50.8281C122.112 50.6302 121.693 50.3568 121.344 50.0078C120.995 49.6589 120.724 49.2474 120.531 48.7734C120.344 48.2943 120.25 47.776 120.25 47.2188V45.6953C120.25 45.138 120.344 44.6198 120.531 44.1406C120.719 43.6615 120.987 43.2474 121.336 42.8984C121.685 42.5443 122.102 42.2682 122.586 42.0703C123.076 41.8724 123.622 41.7734 124.227 41.7734C124.815 41.7734 125.352 41.8724 125.836 42.0703C126.326 42.2682 126.745 42.5443 127.094 42.8984C127.448 43.2474 127.721 43.6615 127.914 44.1406C128.112 44.6198 128.211 45.138 128.211 45.6953V47.2188ZM126.031 45.6875C126.031 45.375 125.992 45.0859 125.914 44.8203C125.836 44.5547 125.719 44.3229 125.562 44.125C125.411 43.9271 125.224 43.7734 125 43.6641C124.776 43.5495 124.518 43.4922 124.227 43.4922C123.914 43.4922 123.646 43.5495 123.422 43.6641C123.198 43.7734 123.013 43.9271 122.867 44.125C122.721 44.3229 122.612 44.5573 122.539 44.8281C122.471 45.0938 122.438 45.3802 122.438 45.6875V47.2188C122.438 47.526 122.471 47.8151 122.539 48.0859C122.612 48.3516 122.721 48.5833 122.867 48.7812C123.018 48.9792 123.206 49.138 123.43 49.2578C123.659 49.3724 123.93 49.4297 124.242 49.4297C124.529 49.4297 124.784 49.3724 125.008 49.2578C125.232 49.1432 125.419 48.987 125.57 48.7891C125.721 48.5859 125.836 48.3516 125.914 48.0859C125.992 47.8151 126.031 47.526 126.031 47.2188V45.6875ZM133.953 45.9688L136.039 41.8984H138.406L135.023 47.8203V51H132.836V47.75L129.5 41.8984H131.875L133.953 45.9688Z" fill="black"/>
<path d="M80.0464 0L87.4189 9.85652L87.0554 10.1165H86.3745L80.0464 1.65628L73.7183 10.1165H73.0374L72.6738 9.85652L80.0464 0Z" fill="black"/>
</svg>
