<svg width="175" height="64" viewBox="0 0 175 64" fill="none" xmlns="http://www.w3.org/2000/svg">
<rect y="9" width="175" height="55" fill="black"/>
<path d="M33.1875 28.8828C33.1615 29.4401 33.0365 29.9245 32.8125 30.3359C32.5938 30.7422 32.3047 31.0781 31.9453 31.3438C31.5911 31.6094 31.1797 31.8073 30.7109 31.9375C30.2474 32.0625 29.7604 32.125 29.25 32.125C28.6562 32.125 28.112 32.0286 27.6172 31.8359C27.1224 31.6432 26.6953 31.3724 26.3359 31.0234C25.9766 30.6745 25.6953 30.2552 25.4922 29.7656C25.2943 29.276 25.1953 28.737 25.1953 28.1484V26.7656C25.1953 26.1719 25.2995 25.6302 25.5078 25.1406C25.7161 24.651 26 24.2318 26.3594 23.8828C26.7188 23.5286 27.138 23.2552 27.6172 23.0625C28.1016 22.8698 28.6198 22.7734 29.1719 22.7734C29.75 22.7734 30.276 22.8438 30.75 22.9844C31.2292 23.125 31.6432 23.3359 31.9922 23.6172C32.3411 23.8932 32.6198 24.237 32.8281 24.6484C33.0417 25.0547 33.1693 25.5234 33.2109 26.0547H31.0234C31.0234 25.5651 30.8568 25.1875 30.5234 24.9219C30.1953 24.651 29.7448 24.5156 29.1719 24.5156C28.9219 24.5156 28.6875 24.5703 28.4688 24.6797C28.25 24.7891 28.0599 24.9427 27.8984 25.1406C27.737 25.3385 27.6094 25.5755 27.5156 25.8516C27.4219 26.1224 27.375 26.4245 27.375 26.7578V28.1484C27.375 28.5078 27.4219 28.8281 27.5156 29.1094C27.6146 29.3854 27.7474 29.6198 27.9141 29.8125C28.0807 30.0052 28.276 30.1536 28.5 30.2578C28.7292 30.3568 28.9792 30.4062 29.25 30.4062C29.4792 30.4062 29.7005 30.3802 29.9141 30.3281C30.1276 30.2708 30.3151 30.1823 30.4766 30.0625C30.6432 29.9427 30.7734 29.7865 30.8672 29.5938C30.9661 29.401 31.0156 29.1641 31.0156 28.8828H33.1875ZM37.6016 30.2734H42.9531V32H35.4062V22.8984H37.6016V30.2734ZM45.3359 22.9062H51.8281V24.6719H49.6484V30.2344H51.8281V32H45.3359V30.2344H47.4609V24.6719H45.3359V22.9062ZM62.0156 28.8828C61.9896 29.4401 61.8646 29.9245 61.6406 30.3359C61.4219 30.7422 61.1328 31.0781 60.7734 31.3438C60.4193 31.6094 60.0078 31.8073 59.5391 31.9375C59.0755 32.0625 58.5885 32.125 58.0781 32.125C57.4844 32.125 56.9401 32.0286 56.4453 31.8359C55.9505 31.6432 55.5234 31.3724 55.1641 31.0234C54.8047 30.6745 54.5234 30.2552 54.3203 29.7656C54.1224 29.276 54.0234 28.737 54.0234 28.1484V26.7656C54.0234 26.1719 54.1276 25.6302 54.3359 25.1406C54.5443 24.651 54.8281 24.2318 55.1875 23.8828C55.5469 23.5286 55.9661 23.2552 56.4453 23.0625C56.9297 22.8698 57.4479 22.7734 58 22.7734C58.5781 22.7734 59.1042 22.8438 59.5781 22.9844C60.0573 23.125 60.4714 23.3359 60.8203 23.6172C61.1693 23.8932 61.4479 24.237 61.6562 24.6484C61.8698 25.0547 61.9974 25.5234 62.0391 26.0547H59.8516C59.8516 25.5651 59.6849 25.1875 59.3516 24.9219C59.0234 24.651 58.5729 24.5156 58 24.5156C57.75 24.5156 57.5156 24.5703 57.2969 24.6797C57.0781 24.7891 56.888 24.9427 56.7266 25.1406C56.5651 25.3385 56.4375 25.5755 56.3438 25.8516C56.25 26.1224 56.2031 26.4245 56.2031 26.7578V28.1484C56.2031 28.5078 56.25 28.8281 56.3438 29.1094C56.4427 29.3854 56.5755 29.6198 56.7422 29.8125C56.9089 30.0052 57.1042 30.1536 57.3281 30.2578C57.5573 30.3568 57.8073 30.4062 58.0781 30.4062C58.3073 30.4062 58.5286 30.3802 58.7422 30.3281C58.9557 30.2708 59.1432 30.1823 59.3047 30.0625C59.4714 29.9427 59.6016 29.7865 59.6953 29.5938C59.7943 29.401 59.8438 29.1641 59.8438 28.8828H62.0156ZM67.3672 28.5312L66.3594 29.5156V32H64.1797V22.8984H66.3594V26.75L67.1484 25.7188L69.4453 22.8984H72.1562L68.8359 26.9844L72.2656 32H69.6797L67.3672 28.5312ZM91.3984 24.6406H88.1875V32H85.9922V24.6406H82.8516V22.8984H91.3984V24.6406ZM100.578 28.2188C100.578 28.776 100.482 29.2943 100.289 29.7734C100.096 30.2474 99.8255 30.6589 99.4766 31.0078C99.1276 31.3568 98.7083 31.6302 98.2188 31.8281C97.7344 32.026 97.1979 32.125 96.6094 32.125C96.0052 32.125 95.4583 32.026 94.9688 31.8281C94.4792 31.6302 94.0599 31.3568 93.7109 31.0078C93.362 30.6589 93.0911 30.2474 92.8984 29.7734C92.7109 29.2943 92.6172 28.776 92.6172 28.2188V26.6953C92.6172 26.138 92.7109 25.6198 92.8984 25.1406C93.0859 24.6615 93.3542 24.2474 93.7031 23.8984C94.0521 23.5443 94.4688 23.2682 94.9531 23.0703C95.4427 22.8724 95.9896 22.7734 96.5938 22.7734C97.1823 22.7734 97.7188 22.8724 98.2031 23.0703C98.6927 23.2682 99.112 23.5443 99.4609 23.8984C99.8151 24.2474 100.089 24.6615 100.281 25.1406C100.479 25.6198 100.578 26.138 100.578 26.6953V28.2188ZM98.3984 26.6875C98.3984 26.375 98.3594 26.0859 98.2812 25.8203C98.2031 25.5547 98.0859 25.3229 97.9297 25.125C97.7786 24.9271 97.5911 24.7734 97.3672 24.6641C97.1432 24.5495 96.8854 24.4922 96.5938 24.4922C96.2812 24.4922 96.013 24.5495 95.7891 24.6641C95.5651 24.7734 95.3802 24.9271 95.2344 25.125C95.0885 25.3229 94.9792 25.5573 94.9062 25.8281C94.8385 26.0938 94.8047 26.3802 94.8047 26.6875V28.2188C94.8047 28.526 94.8385 28.8151 94.9062 29.0859C94.9792 29.3516 95.0885 29.5833 95.2344 29.7812C95.3854 29.9792 95.5729 30.138 95.7969 30.2578C96.026 30.3724 96.2969 30.4297 96.6094 30.4297C96.8958 30.4297 97.151 30.3724 97.375 30.2578C97.599 30.1432 97.7865 29.987 97.9375 29.7891C98.0885 29.5859 98.2031 29.3516 98.2812 29.0859C98.3594 28.8151 98.3984 28.526 98.3984 28.2188V26.6875ZM115.812 29.4922L115.922 29.9922L116.023 29.5078L118.195 22.8984H120.484L117.086 32H114.758L111.375 22.8984H113.664L115.812 29.4922ZM122.211 22.9062H128.703V24.6719H126.523V30.2344H128.703V32H122.211V30.2344H124.336V24.6719H122.211V22.9062ZM137.961 28.1406H133.672V30.2734H138.633V32H131.492V22.8984H138.68V24.6406H133.672V26.3984H137.961V28.1406ZM146.297 27.4453L146.938 22.8984H148.969L147.375 32H145.391L144.523 27.3594L143.703 32H141.719L140.109 22.8984H142.164L142.789 27.3281L143.523 22.8984H145.516L146.297 27.4453ZM38.5469 44.6406H35.3359V52H33.1406V44.6406H30V42.8984H38.5469V44.6406ZM47.1406 52H44.9766V48.4609H42.2266V52H40.0625V42.8984H42.2266V46.7188H44.9766V42.8984H47.1406V52ZM50.1406 42.9062H56.6328V44.6719H54.4531V50.2344H56.6328V52H50.1406V50.2344H52.2656V44.6719H50.1406V42.9062ZM64.8125 49.5312C64.8125 49.3698 64.7708 49.2292 64.6875 49.1094C64.6094 48.9896 64.4896 48.8828 64.3281 48.7891C64.1667 48.6901 63.9661 48.6016 63.7266 48.5234C63.487 48.4453 63.2083 48.3698 62.8906 48.2969C62.349 48.1562 61.8672 48.0156 61.4453 47.875C61.0286 47.7292 60.6771 47.5521 60.3906 47.3438C60.1042 47.1354 59.888 46.8802 59.7422 46.5781C59.5964 46.2708 59.5234 45.8906 59.5234 45.4375C59.5234 45.0104 59.6146 44.6328 59.7969 44.3047C59.9844 43.9714 60.2396 43.6927 60.5625 43.4688C60.8854 43.2396 61.263 43.0677 61.6953 42.9531C62.1328 42.8333 62.6016 42.7734 63.1016 42.7734C63.6224 42.7734 64.1094 42.8255 64.5625 42.9297C65.0156 43.0339 65.4089 43.2005 65.7422 43.4297C66.0807 43.6536 66.3464 43.9479 66.5391 44.3125C66.7318 44.6771 66.8333 45.1172 66.8438 45.6328H64.6641C64.6641 45.4557 64.625 45.2917 64.5469 45.1406C64.4688 44.9844 64.3594 44.8516 64.2188 44.7422C64.0781 44.6328 63.9141 44.5469 63.7266 44.4844C63.5391 44.4219 63.3359 44.3906 63.1172 44.3906C62.8724 44.3906 62.6562 44.4167 62.4688 44.4688C62.2812 44.5208 62.1224 44.5938 61.9922 44.6875C61.862 44.776 61.763 44.8802 61.6953 45C61.6276 45.1146 61.5938 45.2344 61.5938 45.3594C61.5938 45.5208 61.625 45.6589 61.6875 45.7734C61.75 45.8828 61.8516 45.9818 61.9922 46.0703C62.138 46.1536 62.3255 46.2318 62.5547 46.3047C62.7839 46.3776 63.0651 46.4531 63.3984 46.5312C63.9349 46.6562 64.4193 46.7969 64.8516 46.9531C65.2839 47.1042 65.651 47.2917 65.9531 47.5156C66.2552 47.7344 66.487 48.0026 66.6484 48.3203C66.8099 48.638 66.8906 49.026 66.8906 49.4844C66.8906 49.9323 66.7943 50.3229 66.6016 50.6562C66.4141 50.9844 66.151 51.2578 65.8125 51.4766C65.4792 51.6953 65.0807 51.8594 64.6172 51.9688C64.1589 52.0729 63.6589 52.125 63.1172 52.125C62.7995 52.125 62.4818 52.1042 62.1641 52.0625C61.8516 52.026 61.5495 51.9635 61.2578 51.875C60.9714 51.7812 60.7031 51.6589 60.4531 51.5078C60.2031 51.3568 59.9844 51.1719 59.7969 50.9531C59.6146 50.7344 59.4688 50.4792 59.3594 50.1875C59.2552 49.8906 59.2005 49.5495 59.1953 49.1641H61.375C61.375 49.4245 61.4219 49.6432 61.5156 49.8203C61.6146 49.9922 61.7474 50.1302 61.9141 50.2344C62.0807 50.3385 62.276 50.4141 62.5 50.4609C62.724 50.5078 62.9635 50.5312 63.2188 50.5312C63.4844 50.5312 63.7161 50.5026 63.9141 50.4453C64.112 50.388 64.276 50.3125 64.4062 50.2188C64.5417 50.125 64.6432 50.0182 64.7109 49.8984C64.7786 49.7786 64.8125 49.6562 64.8125 49.5312ZM78.6484 52V42.8984H82.2656C82.8229 42.8984 83.3307 42.9479 83.7891 43.0469C84.2526 43.1458 84.6484 43.2995 84.9766 43.5078C85.3047 43.7109 85.5573 43.9714 85.7344 44.2891C85.9167 44.6068 86.0078 44.9844 86.0078 45.4219C86.0078 45.8542 85.8932 46.2448 85.6641 46.5938C85.4349 46.9375 85.0781 47.1979 84.5938 47.375C84.8802 47.4427 85.125 47.5443 85.3281 47.6797C85.5312 47.8151 85.6979 47.974 85.8281 48.1562C85.9635 48.3385 86.0625 48.5365 86.125 48.75C86.1875 48.9583 86.2188 49.1719 86.2188 49.3906C86.2188 49.849 86.1354 50.2448 85.9688 50.5781C85.8073 50.9062 85.5703 51.1771 85.2578 51.3906C84.9453 51.599 84.5651 51.7526 84.1172 51.8516C83.6693 51.9505 83.1641 52 82.6016 52H78.6484ZM80.8281 48.1719V50.2578H82.6016C83.0755 50.2578 83.4323 50.1641 83.6719 49.9766C83.9167 49.7839 84.0391 49.5443 84.0391 49.2578C84.0391 48.9036 83.9271 48.6354 83.7031 48.4531C83.4844 48.2708 83.1458 48.1771 82.6875 48.1719H80.8281ZM80.8281 46.6953H82.4688C82.8958 46.6849 83.2266 46.6016 83.4609 46.4453C83.7005 46.2891 83.8203 46.0417 83.8203 45.7031C83.8203 45.5104 83.7865 45.349 83.7188 45.2188C83.6562 45.0833 83.5651 44.9766 83.4453 44.8984C83.3255 44.8151 83.1771 44.7552 83 44.7188C82.8281 44.6823 82.6328 44.6641 82.4141 44.6641H80.8281V46.6953ZM93.5781 50.2734H90.0156L89.3906 52H87.1719L90.7266 42.8984H92.8359L96.4375 52H94.2266L93.5781 50.2734ZM90.5938 48.6797H92.9844L91.7734 45.4297L90.5938 48.6797ZM97.8359 52V42.8984H101.352C101.919 42.8984 102.453 43 102.953 43.2031C103.453 43.401 103.888 43.6745 104.258 44.0234C104.633 44.3672 104.93 44.7786 105.148 45.2578C105.367 45.7318 105.477 46.2474 105.477 46.8047V48.1172C105.477 48.6797 105.367 49.1979 105.148 49.6719C104.93 50.1458 104.635 50.5547 104.266 50.8984C103.896 51.2422 103.466 51.513 102.977 51.7109C102.492 51.9036 101.979 52 101.438 52H97.8359ZM100.008 44.6406V50.2734H101.438C101.708 50.2734 101.956 50.224 102.18 50.125C102.409 50.0208 102.604 49.8776 102.766 49.6953C102.932 49.5078 103.062 49.2812 103.156 49.0156C103.25 48.75 103.297 48.4505 103.297 48.1172V46.7969C103.297 46.4896 103.25 46.2057 103.156 45.9453C103.068 45.6797 102.94 45.4505 102.773 45.2578C102.607 45.0651 102.404 44.9141 102.164 44.8047C101.924 44.6953 101.654 44.6406 101.352 44.6406H100.008ZM117.086 52V42.8984H120.703C121.26 42.8984 121.768 42.9479 122.227 43.0469C122.69 43.1458 123.086 43.2995 123.414 43.5078C123.742 43.7109 123.995 43.9714 124.172 44.2891C124.354 44.6068 124.445 44.9844 124.445 45.4219C124.445 45.8542 124.331 46.2448 124.102 46.5938C123.872 46.9375 123.516 47.1979 123.031 47.375C123.318 47.4427 123.562 47.5443 123.766 47.6797C123.969 47.8151 124.135 47.974 124.266 48.1562C124.401 48.3385 124.5 48.5365 124.562 48.75C124.625 48.9583 124.656 49.1719 124.656 49.3906C124.656 49.849 124.573 50.2448 124.406 50.5781C124.245 50.9062 124.008 51.1771 123.695 51.3906C123.383 51.599 123.003 51.7526 122.555 51.8516C122.107 51.9505 121.602 52 121.039 52H117.086ZM119.266 48.1719V50.2578H121.039C121.513 50.2578 121.87 50.1641 122.109 49.9766C122.354 49.7839 122.477 49.5443 122.477 49.2578C122.477 48.9036 122.365 48.6354 122.141 48.4531C121.922 48.2708 121.583 48.1771 121.125 48.1719H119.266ZM119.266 46.6953H120.906C121.333 46.6849 121.664 46.6016 121.898 46.4453C122.138 46.2891 122.258 46.0417 122.258 45.7031C122.258 45.5104 122.224 45.349 122.156 45.2188C122.094 45.0833 122.003 44.9766 121.883 44.8984C121.763 44.8151 121.615 44.7552 121.438 44.7188C121.266 44.6823 121.07 44.6641 120.852 44.6641H119.266V46.6953ZM134.211 48.2188C134.211 48.776 134.115 49.2943 133.922 49.7734C133.729 50.2474 133.458 50.6589 133.109 51.0078C132.76 51.3568 132.341 51.6302 131.852 51.8281C131.367 52.026 130.831 52.125 130.242 52.125C129.638 52.125 129.091 52.026 128.602 51.8281C128.112 51.6302 127.693 51.3568 127.344 51.0078C126.995 50.6589 126.724 50.2474 126.531 49.7734C126.344 49.2943 126.25 48.776 126.25 48.2188V46.6953C126.25 46.138 126.344 45.6198 126.531 45.1406C126.719 44.6615 126.987 44.2474 127.336 43.8984C127.685 43.5443 128.102 43.2682 128.586 43.0703C129.076 42.8724 129.622 42.7734 130.227 42.7734C130.815 42.7734 131.352 42.8724 131.836 43.0703C132.326 43.2682 132.745 43.5443 133.094 43.8984C133.448 44.2474 133.721 44.6615 133.914 45.1406C134.112 45.6198 134.211 46.138 134.211 46.6953V48.2188ZM132.031 46.6875C132.031 46.375 131.992 46.0859 131.914 45.8203C131.836 45.5547 131.719 45.3229 131.562 45.125C131.411 44.9271 131.224 44.7734 131 44.6641C130.776 44.5495 130.518 44.4922 130.227 44.4922C129.914 44.4922 129.646 44.5495 129.422 44.6641C129.198 44.7734 129.013 44.9271 128.867 45.125C128.721 45.3229 128.612 45.5573 128.539 45.8281C128.471 46.0938 128.438 46.3802 128.438 46.6875V48.2188C128.438 48.526 128.471 48.8151 128.539 49.0859C128.612 49.3516 128.721 49.5833 128.867 49.7812C129.018 49.9792 129.206 50.138 129.43 50.2578C129.659 50.3724 129.93 50.4297 130.242 50.4297C130.529 50.4297 130.784 50.3724 131.008 50.2578C131.232 50.1432 131.419 49.987 131.57 49.7891C131.721 49.5859 131.836 49.3516 131.914 49.0859C131.992 48.8151 132.031 48.526 132.031 48.2188V46.6875ZM139.953 46.9688L142.039 42.8984H144.406L141.023 48.8203V52H138.836V48.75L135.5 42.8984H137.875L139.953 46.9688Z" fill="white"/>
<path d="M87.0471 0L94.016 9.52941H80.0781L87.0471 0Z" fill="black"/>
</svg>
