<svg width="113" height="45" viewBox="0 0 113 45" fill="none" xmlns="http://www.w3.org/2000/svg">
<path d="M62.5 9.62744H112V43.8471H1V9.62744H49.5" stroke="black"/>
<path d="M23.625 31.4717V22.3701H27.2422C27.7995 22.3701 28.3073 22.4196 28.7656 22.5186C29.2292 22.6175 29.625 22.7712 29.9531 22.9795C30.2812 23.1826 30.5339 23.443 30.7109 23.7607C30.8932 24.0785 30.9844 24.4561 30.9844 24.8936C30.9844 25.3258 30.8698 25.7165 30.6406 26.0654C30.4115 26.4092 30.0547 26.6696 29.5703 26.8467C29.8568 26.9144 30.1016 27.016 30.3047 27.1514C30.5078 27.2868 30.6745 27.4456 30.8047 27.6279C30.9401 27.8102 31.0391 28.0081 31.1016 28.2217C31.1641 28.43 31.1953 28.6436 31.1953 28.8623C31.1953 29.3206 31.112 29.7165 30.9453 30.0498C30.7839 30.3779 30.5469 30.6488 30.2344 30.8623C29.9219 31.0706 29.5417 31.2243 29.0938 31.3232C28.6458 31.4222 28.1406 31.4717 27.5781 31.4717H23.625ZM25.8047 27.6436V29.7295H27.5781C28.0521 29.7295 28.4089 29.6357 28.6484 29.4482C28.8932 29.2555 29.0156 29.016 29.0156 28.7295C29.0156 28.3753 28.9036 28.1071 28.6797 27.9248C28.4609 27.7425 28.1224 27.6488 27.6641 27.6436H25.8047ZM25.8047 26.167H27.4453C27.8724 26.1566 28.2031 26.0732 28.4375 25.917C28.6771 25.7607 28.7969 25.5133 28.7969 25.1748C28.7969 24.9821 28.763 24.8206 28.6953 24.6904C28.6328 24.555 28.5417 24.4482 28.4219 24.3701C28.3021 24.2868 28.1536 24.2269 27.9766 24.1904C27.8047 24.154 27.6094 24.1357 27.3906 24.1357H25.8047V26.167ZM38.5547 29.7451H34.9922L34.3672 31.4717H32.1484L35.7031 22.3701H37.8125L41.4141 31.4717H39.2031L38.5547 29.7451ZM35.5703 28.1514H37.9609L36.75 24.9014L35.5703 28.1514ZM49.4688 27.8701H45.0859V31.4717H42.8984V22.3701H49.9688V24.1123H45.0859V26.1279H49.4688V27.8701ZM59.0781 27.8701H54.6953V31.4717H52.5078V22.3701H59.5781V24.1123H54.6953V26.1279H59.0781V27.8701ZM64.2578 29.7451H69.6094V31.4717H62.0625V22.3701H64.2578V29.7451ZM78.1328 27.6123H73.8438V29.7451H78.8047V31.4717H71.6641V22.3701H78.8516V24.1123H73.8438V25.8701H78.1328V27.6123ZM81.25 31.4717V22.3701H84.7656C85.3333 22.3701 85.8672 22.4717 86.3672 22.6748C86.8672 22.8727 87.3021 23.1462 87.6719 23.4951C88.0469 23.8389 88.3438 24.2503 88.5625 24.7295C88.7812 25.2035 88.8906 25.7191 88.8906 26.2764V27.5889C88.8906 28.1514 88.7812 28.6696 88.5625 29.1436C88.3438 29.6175 88.0495 30.0264 87.6797 30.3701C87.3099 30.7139 86.8802 30.9847 86.3906 31.1826C85.9062 31.3753 85.3932 31.4717 84.8516 31.4717H81.25ZM83.4219 24.1123V29.7451H84.8516C85.1224 29.7451 85.3698 29.6956 85.5938 29.5967C85.8229 29.4925 86.0182 29.3493 86.1797 29.167C86.3464 28.9795 86.4766 28.7529 86.5703 28.4873C86.6641 28.2217 86.7109 27.9222 86.7109 27.5889V26.2686C86.7109 25.9613 86.6641 25.6774 86.5703 25.417C86.4818 25.1514 86.3542 24.9222 86.1875 24.7295C86.0208 24.5368 85.8177 24.3857 85.5781 24.2764C85.3385 24.167 85.0677 24.1123 84.7656 24.1123H83.4219Z" fill="black"/>
<path d="M56.0469 0L63.4194 9.85652L63.0558 10.1165H62.375L56.0469 1.65628L49.7188 10.1165H49.0379L48.6743 9.85652L56.0469 0Z" fill="black"/>
</svg>
