<svg width="111" height="44" viewBox="0 0 111 44" fill="none" xmlns="http://www.w3.org/2000/svg">
<rect y="9" width="111" height="35" fill="black"/>
<path d="M17.8203 32V22.8984H21.4375C21.9948 22.8984 22.5026 22.9479 22.9609 23.0469C23.4245 23.1458 23.8203 23.2995 24.1484 23.5078C24.4766 23.7109 24.7292 23.9714 24.9062 24.2891C25.0885 24.6068 25.1797 24.9844 25.1797 25.4219C25.1797 25.8542 25.0651 26.2448 24.8359 26.5938C24.6068 26.9375 24.25 27.1979 23.7656 27.375C24.0521 27.4427 24.2969 27.5443 24.5 27.6797C24.7031 27.8151 24.8698 27.974 25 28.1562C25.1354 28.3385 25.2344 28.5365 25.2969 28.75C25.3594 28.9583 25.3906 29.1719 25.3906 29.3906C25.3906 29.849 25.3073 30.2448 25.1406 30.5781C24.9792 30.9062 24.7422 31.1771 24.4297 31.3906C24.1172 31.599 23.737 31.7526 23.2891 31.8516C22.8411 31.9505 22.3359 32 21.7734 32H17.8203ZM20 28.1719V30.2578H21.7734C22.2474 30.2578 22.6042 30.1641 22.8438 29.9766C23.0885 29.7839 23.2109 29.5443 23.2109 29.2578C23.2109 28.9036 23.099 28.6354 22.875 28.4531C22.6562 28.2708 22.3177 28.1771 21.8594 28.1719H20ZM20 26.6953H21.6406C22.0677 26.6849 22.3984 26.6016 22.6328 26.4453C22.8724 26.2891 22.9922 26.0417 22.9922 25.7031C22.9922 25.5104 22.9583 25.349 22.8906 25.2188C22.8281 25.0833 22.737 24.9766 22.6172 24.8984C22.4974 24.8151 22.349 24.7552 22.1719 24.7188C22 24.6823 21.8047 24.6641 21.5859 24.6641H20V26.6953ZM32.75 30.2734H29.1875L28.5625 32H26.3438L29.8984 22.8984H32.0078L35.6094 32H33.3984L32.75 30.2734ZM29.7656 28.6797H32.1562L30.9453 25.4297L29.7656 28.6797ZM43.6641 28.3984H39.2812V32H37.0938V22.8984H44.1641V24.6406H39.2812V26.6562H43.6641V28.3984ZM53.2734 28.3984H48.8906V32H46.7031V22.8984H53.7734V24.6406H48.8906V26.6562H53.2734V28.3984ZM58.4531 30.2734H63.8047V32H56.2578V22.8984H58.4531V30.2734ZM72.3281 28.1406H68.0391V30.2734H73V32H65.8594V22.8984H73.0469V24.6406H68.0391V26.3984H72.3281V28.1406ZM75.4453 32V22.8984H78.9609C79.5286 22.8984 80.0625 23 80.5625 23.2031C81.0625 23.401 81.4974 23.6745 81.8672 24.0234C82.2422 24.3672 82.5391 24.7786 82.7578 25.2578C82.9766 25.7318 83.0859 26.2474 83.0859 26.8047V28.1172C83.0859 28.6797 82.9766 29.1979 82.7578 29.6719C82.5391 30.1458 82.2448 30.5547 81.875 30.8984C81.5052 31.2422 81.0755 31.513 80.5859 31.7109C80.1016 31.9036 79.5885 32 79.0469 32H75.4453ZM77.6172 24.6406V30.2734H79.0469C79.3177 30.2734 79.5651 30.224 79.7891 30.125C80.0182 30.0208 80.2135 29.8776 80.375 29.6953C80.5417 29.5078 80.6719 29.2812 80.7656 29.0156C80.8594 28.75 80.9062 28.4505 80.9062 28.1172V26.7969C80.9062 26.4896 80.8594 26.2057 80.7656 25.9453C80.6771 25.6797 80.5495 25.4505 80.3828 25.2578C80.2161 25.0651 80.013 24.9141 79.7734 24.8047C79.5339 24.6953 79.263 24.6406 78.9609 24.6406H77.6172ZM87.7266 28.5469C87.7266 28.1875 87.7344 27.8828 87.75 27.6328C87.7708 27.3828 87.8151 27.1589 87.8828 26.9609C87.9505 26.7578 88.0521 26.5729 88.1875 26.4062C88.3229 26.2344 88.513 26.0521 88.7578 25.8594C88.9349 25.6979 89.112 25.5286 89.2891 25.3516C89.4661 25.1693 89.625 24.9844 89.7656 24.7969C89.9115 24.6042 90.0286 24.4089 90.1172 24.2109C90.2057 24.013 90.25 23.8151 90.25 23.6172C90.25 23.1432 90.1224 22.7969 89.8672 22.5781C89.612 22.3594 89.2396 22.25 88.75 22.25C88.5625 22.25 88.3802 22.276 88.2031 22.3281C88.026 22.375 87.8672 22.4531 87.7266 22.5625C87.5911 22.6719 87.4792 22.8125 87.3906 22.9844C87.3073 23.1562 87.263 23.362 87.2578 23.6016H85.0781C85.0833 23.0703 85.1823 22.6094 85.375 22.2188C85.5677 21.8229 85.8281 21.4948 86.1562 21.2344C86.4844 20.974 86.8698 20.7812 87.3125 20.6562C87.7552 20.526 88.2344 20.4609 88.75 20.4609C89.3281 20.4609 89.8464 20.526 90.3047 20.6562C90.763 20.7865 91.1484 20.9818 91.4609 21.2422C91.7786 21.4974 92.0208 21.8151 92.1875 22.1953C92.3542 22.5755 92.4375 23.0156 92.4375 23.5156C92.4375 23.8854 92.375 24.224 92.25 24.5312C92.125 24.8333 91.9635 25.1172 91.7656 25.3828C91.5677 25.6432 91.3411 25.8932 91.0859 26.1328C90.8359 26.3672 90.5833 26.5964 90.3281 26.8203C90.1719 26.9766 90.0495 27.1146 89.9609 27.2344C89.8724 27.3542 89.8073 27.4766 89.7656 27.6016C89.7292 27.7266 89.7057 27.8646 89.6953 28.0156C89.6849 28.1615 89.6797 28.3385 89.6797 28.5469H87.7266ZM87.4062 30.9141C87.4062 30.7422 87.4349 30.5833 87.4922 30.4375C87.5495 30.2865 87.6328 30.1562 87.7422 30.0469C87.8516 29.9375 87.9844 29.8542 88.1406 29.7969C88.2969 29.7344 88.474 29.7031 88.6719 29.7031C88.8646 29.7031 89.0391 29.7344 89.1953 29.7969C89.3568 29.8542 89.4922 29.9375 89.6016 30.0469C89.7109 30.1562 89.7943 30.2865 89.8516 30.4375C89.9141 30.5833 89.9453 30.7422 89.9453 30.9141C89.9453 31.0807 89.9141 31.237 89.8516 31.3828C89.7943 31.5286 89.7109 31.6536 89.6016 31.7578C89.4922 31.862 89.3568 31.9427 89.1953 32C89.0391 32.0625 88.8646 32.0938 88.6719 32.0938C88.474 32.0938 88.2969 32.0625 88.1406 32C87.9844 31.9427 87.8516 31.862 87.7422 31.7578C87.6328 31.6536 87.5495 31.5286 87.4922 31.3828C87.4349 31.237 87.4062 31.0807 87.4062 30.9141Z" fill="white"/>
<path d="M55.0471 0L62.016 9.52941H48.0781L55.0471 0Z" fill="black"/>
</svg>
