<svg width="111" height="44" viewBox="0 0 111 44" fill="none" xmlns="http://www.w3.org/2000/svg">
<rect y="9" width="111" height="35" fill="black"/>
<path d="M33.8906 28.1406H29.6016V30.2734H34.5625V32H27.4219V22.8984H34.6094V24.6406H29.6016V26.3984H33.8906V28.1406ZM42.4219 29.5312C42.4219 29.3698 42.3802 29.2292 42.2969 29.1094C42.2188 28.9896 42.099 28.8828 41.9375 28.7891C41.776 28.6901 41.5755 28.6016 41.3359 28.5234C41.0964 28.4453 40.8177 28.3698 40.5 28.2969C39.9583 28.1562 39.4766 28.0156 39.0547 27.875C38.638 27.7292 38.2865 27.5521 38 27.3438C37.7135 27.1354 37.4974 26.8802 37.3516 26.5781C37.2057 26.2708 37.1328 25.8906 37.1328 25.4375C37.1328 25.0104 37.224 24.6328 37.4062 24.3047C37.5938 23.9714 37.849 23.6927 38.1719 23.4688C38.4948 23.2396 38.8724 23.0677 39.3047 22.9531C39.7422 22.8333 40.2109 22.7734 40.7109 22.7734C41.2318 22.7734 41.7188 22.8255 42.1719 22.9297C42.625 23.0339 43.0182 23.2005 43.3516 23.4297C43.6901 23.6536 43.9557 23.9479 44.1484 24.3125C44.3411 24.6771 44.4427 25.1172 44.4531 25.6328H42.2734C42.2734 25.4557 42.2344 25.2917 42.1562 25.1406C42.0781 24.9844 41.9688 24.8516 41.8281 24.7422C41.6875 24.6328 41.5234 24.5469 41.3359 24.4844C41.1484 24.4219 40.9453 24.3906 40.7266 24.3906C40.4818 24.3906 40.2656 24.4167 40.0781 24.4688C39.8906 24.5208 39.7318 24.5938 39.6016 24.6875C39.4714 24.776 39.3724 24.8802 39.3047 25C39.237 25.1146 39.2031 25.2344 39.2031 25.3594C39.2031 25.5208 39.2344 25.6589 39.2969 25.7734C39.3594 25.8828 39.4609 25.9818 39.6016 26.0703C39.7474 26.1536 39.9349 26.2318 40.1641 26.3047C40.3932 26.3776 40.6745 26.4531 41.0078 26.5312C41.5443 26.6562 42.0286 26.7969 42.4609 26.9531C42.8932 27.1042 43.2604 27.2917 43.5625 27.5156C43.8646 27.7344 44.0964 28.0026 44.2578 28.3203C44.4193 28.638 44.5 29.026 44.5 29.4844C44.5 29.9323 44.4036 30.3229 44.2109 30.6562C44.0234 30.9844 43.7604 31.2578 43.4219 31.4766C43.0885 31.6953 42.6901 31.8594 42.2266 31.9688C41.7682 32.0729 41.2682 32.125 40.7266 32.125C40.4089 32.125 40.0911 32.1042 39.7734 32.0625C39.4609 32.026 39.1589 31.9635 38.8672 31.875C38.5807 31.7812 38.3125 31.6589 38.0625 31.5078C37.8125 31.3568 37.5938 31.1719 37.4062 30.9531C37.224 30.7344 37.0781 30.4792 36.9688 30.1875C36.8646 29.8906 36.8099 29.5495 36.8047 29.1641H38.9844C38.9844 29.4245 39.0312 29.6432 39.125 29.8203C39.224 29.9922 39.3568 30.1302 39.5234 30.2344C39.6901 30.3385 39.8854 30.4141 40.1094 30.4609C40.3333 30.5078 40.5729 30.5312 40.8281 30.5312C41.0938 30.5312 41.3255 30.5026 41.5234 30.4453C41.7214 30.388 41.8854 30.3125 42.0156 30.2188C42.151 30.125 42.2526 30.0182 42.3203 29.8984C42.388 29.7786 42.4219 29.6562 42.4219 29.5312ZM54.0391 28.8828C54.013 29.4401 53.888 29.9245 53.6641 30.3359C53.4453 30.7422 53.1562 31.0781 52.7969 31.3438C52.4427 31.6094 52.0312 31.8073 51.5625 31.9375C51.099 32.0625 50.612 32.125 50.1016 32.125C49.5078 32.125 48.9635 32.0286 48.4688 31.8359C47.974 31.6432 47.5469 31.3724 47.1875 31.0234C46.8281 30.6745 46.5469 30.2552 46.3438 29.7656C46.1458 29.276 46.0469 28.737 46.0469 28.1484V26.7656C46.0469 26.1719 46.151 25.6302 46.3594 25.1406C46.5677 24.651 46.8516 24.2318 47.2109 23.8828C47.5703 23.5286 47.9896 23.2552 48.4688 23.0625C48.9531 22.8698 49.4714 22.7734 50.0234 22.7734C50.6016 22.7734 51.1276 22.8438 51.6016 22.9844C52.0807 23.125 52.4948 23.3359 52.8438 23.6172C53.1927 23.8932 53.4714 24.237 53.6797 24.6484C53.8932 25.0547 54.0208 25.5234 54.0625 26.0547H51.875C51.875 25.5651 51.7083 25.1875 51.375 24.9219C51.0469 24.651 50.5964 24.5156 50.0234 24.5156C49.7734 24.5156 49.5391 24.5703 49.3203 24.6797C49.1016 24.7891 48.9115 24.9427 48.75 25.1406C48.5885 25.3385 48.4609 25.5755 48.3672 25.8516C48.2734 26.1224 48.2266 26.4245 48.2266 26.7578V28.1484C48.2266 28.5078 48.2734 28.8281 48.3672 29.1094C48.4661 29.3854 48.599 29.6198 48.7656 29.8125C48.9323 30.0052 49.1276 30.1536 49.3516 30.2578C49.5807 30.3568 49.8307 30.4062 50.1016 30.4062C50.3307 30.4062 50.5521 30.3802 50.7656 30.3281C50.9792 30.2708 51.1667 30.1823 51.3281 30.0625C51.4948 29.9427 51.625 29.7865 51.7188 29.5938C51.8177 29.401 51.8672 29.1641 51.8672 28.8828H54.0391ZM61.5781 30.2734H58.0156L57.3906 32H55.1719L58.7266 22.8984H60.8359L64.4375 32H62.2266L61.5781 30.2734ZM58.5938 28.6797H60.9844L59.7734 25.4297L58.5938 28.6797ZM68.0391 29.0547V32H65.8672V22.8984H69.6641C70.2057 22.8984 70.6979 22.9766 71.1406 23.1328C71.5885 23.2839 71.9714 23.5 72.2891 23.7812C72.612 24.0573 72.8594 24.388 73.0312 24.7734C73.2083 25.1589 73.2969 25.5833 73.2969 26.0469C73.2969 26.4844 73.2083 26.888 73.0312 27.2578C72.8594 27.6224 72.612 27.9375 72.2891 28.2031C71.9714 28.4688 71.5885 28.6771 71.1406 28.8281C70.6979 28.9792 70.2057 29.0547 69.6641 29.0547H68.0391ZM68.0391 27.3203H69.6641C69.8984 27.3203 70.1042 27.2865 70.2812 27.2188C70.4635 27.1458 70.6146 27.0521 70.7344 26.9375C70.8594 26.8177 70.9531 26.6823 71.0156 26.5312C71.0833 26.3802 71.1172 26.224 71.1172 26.0625C71.1172 25.8698 71.0833 25.6875 71.0156 25.5156C70.9531 25.3438 70.8594 25.1927 70.7344 25.0625C70.6146 24.9323 70.4635 24.8307 70.2812 24.7578C70.1042 24.6797 69.8984 24.6406 69.6641 24.6406H68.0391V27.3203ZM81.9375 28.1406H77.6484V30.2734H82.6094V32H75.4688V22.8984H82.6562V24.6406H77.6484V26.3984H81.9375V28.1406Z" fill="white"/>
<path d="M55.0471 0L62.016 9.52941H48.0781L55.0471 0Z" fill="black"/>
</svg>
