<svg width="113" height="45" viewBox="0 0 113 45" fill="none" xmlns="http://www.w3.org/2000/svg">
<path d="M62.5 9.78027H112V44H1V9.78027H49.5" stroke="black"/>
<path d="M34.8906 27.7651H30.6016V29.8979H35.5625V31.6245H28.4219V22.5229H35.6094V24.2651H30.6016V26.0229H34.8906V27.7651ZM43.4219 29.1558C43.4219 28.9943 43.3802 28.8537 43.2969 28.7339C43.2188 28.6141 43.099 28.5073 42.9375 28.4136C42.776 28.3146 42.5755 28.2261 42.3359 28.1479C42.0964 28.0698 41.8177 27.9943 41.5 27.9214C40.9583 27.7808 40.4766 27.6401 40.0547 27.4995C39.638 27.3537 39.2865 27.1766 39 26.9683C38.7135 26.7599 38.4974 26.5047 38.3516 26.2026C38.2057 25.8953 38.1328 25.5151 38.1328 25.062C38.1328 24.6349 38.224 24.2573 38.4062 23.9292C38.5938 23.5959 38.849 23.3172 39.1719 23.0933C39.4948 22.8641 39.8724 22.6922 40.3047 22.5776C40.7422 22.4578 41.2109 22.3979 41.7109 22.3979C42.2318 22.3979 42.7188 22.45 43.1719 22.5542C43.625 22.6584 44.0182 22.825 44.3516 23.0542C44.6901 23.2782 44.9557 23.5724 45.1484 23.937C45.3411 24.3016 45.4427 24.7417 45.4531 25.2573H43.2734C43.2734 25.0802 43.2344 24.9162 43.1562 24.7651C43.0781 24.6089 42.9688 24.4761 42.8281 24.3667C42.6875 24.2573 42.5234 24.1714 42.3359 24.1089C42.1484 24.0464 41.9453 24.0151 41.7266 24.0151C41.4818 24.0151 41.2656 24.0412 41.0781 24.0933C40.8906 24.1453 40.7318 24.2183 40.6016 24.312C40.4714 24.4006 40.3724 24.5047 40.3047 24.6245C40.237 24.7391 40.2031 24.8589 40.2031 24.9839C40.2031 25.1453 40.2344 25.2834 40.2969 25.3979C40.3594 25.5073 40.4609 25.6063 40.6016 25.6948C40.7474 25.7782 40.9349 25.8563 41.1641 25.9292C41.3932 26.0021 41.6745 26.0776 42.0078 26.1558C42.5443 26.2808 43.0286 26.4214 43.4609 26.5776C43.8932 26.7287 44.2604 26.9162 44.5625 27.1401C44.8646 27.3589 45.0964 27.6271 45.2578 27.9448C45.4193 28.2625 45.5 28.6506 45.5 29.1089C45.5 29.5568 45.4036 29.9474 45.2109 30.2808C45.0234 30.6089 44.7604 30.8823 44.4219 31.1011C44.0885 31.3198 43.6901 31.4839 43.2266 31.5933C42.7682 31.6974 42.2682 31.7495 41.7266 31.7495C41.4089 31.7495 41.0911 31.7287 40.7734 31.687C40.4609 31.6506 40.1589 31.5881 39.8672 31.4995C39.5807 31.4058 39.3125 31.2834 39.0625 31.1323C38.8125 30.9813 38.5938 30.7964 38.4062 30.5776C38.224 30.3589 38.0781 30.1037 37.9688 29.812C37.8646 29.5151 37.8099 29.174 37.8047 28.7886H39.9844C39.9844 29.049 40.0312 29.2677 40.125 29.4448C40.224 29.6167 40.3568 29.7547 40.5234 29.8589C40.6901 29.9631 40.8854 30.0386 41.1094 30.0854C41.3333 30.1323 41.5729 30.1558 41.8281 30.1558C42.0938 30.1558 42.3255 30.1271 42.5234 30.0698C42.7214 30.0125 42.8854 29.937 43.0156 29.8433C43.151 29.7495 43.2526 29.6427 43.3203 29.5229C43.388 29.4032 43.4219 29.2808 43.4219 29.1558ZM55.0391 28.5073C55.013 29.0646 54.888 29.549 54.6641 29.9604C54.4453 30.3667 54.1562 30.7026 53.7969 30.9683C53.4427 31.2339 53.0312 31.4318 52.5625 31.562C52.099 31.687 51.612 31.7495 51.1016 31.7495C50.5078 31.7495 49.9635 31.6532 49.4688 31.4604C48.974 31.2677 48.5469 30.9969 48.1875 30.6479C47.8281 30.299 47.5469 29.8797 47.3438 29.3901C47.1458 28.9006 47.0469 28.3615 47.0469 27.7729V26.3901C47.0469 25.7964 47.151 25.2547 47.3594 24.7651C47.5677 24.2756 47.8516 23.8563 48.2109 23.5073C48.5703 23.1532 48.9896 22.8797 49.4688 22.687C49.9531 22.4943 50.4714 22.3979 51.0234 22.3979C51.6016 22.3979 52.1276 22.4683 52.6016 22.6089C53.0807 22.7495 53.4948 22.9604 53.8438 23.2417C54.1927 23.5177 54.4714 23.8615 54.6797 24.2729C54.8932 24.6792 55.0208 25.1479 55.0625 25.6792H52.875C52.875 25.1896 52.7083 24.812 52.375 24.5464C52.0469 24.2756 51.5964 24.1401 51.0234 24.1401C50.7734 24.1401 50.5391 24.1948 50.3203 24.3042C50.1016 24.4136 49.9115 24.5672 49.75 24.7651C49.5885 24.9631 49.4609 25.2 49.3672 25.4761C49.2734 25.7469 49.2266 26.049 49.2266 26.3823V27.7729C49.2266 28.1323 49.2734 28.4526 49.3672 28.7339C49.4661 29.0099 49.599 29.2443 49.7656 29.437C49.9323 29.6297 50.1276 29.7782 50.3516 29.8823C50.5807 29.9813 50.8307 30.0308 51.1016 30.0308C51.3307 30.0308 51.5521 30.0047 51.7656 29.9526C51.9792 29.8953 52.1667 29.8068 52.3281 29.687C52.4948 29.5672 52.625 29.411 52.7188 29.2183C52.8177 29.0256 52.8672 28.7886 52.8672 28.5073H55.0391ZM62.5781 29.8979H59.0156L58.3906 31.6245H56.1719L59.7266 22.5229H61.8359L65.4375 31.6245H63.2266L62.5781 29.8979ZM59.5938 28.3042H61.9844L60.7734 25.0542L59.5938 28.3042ZM69.0391 28.6792V31.6245H66.8672V22.5229H70.6641C71.2057 22.5229 71.6979 22.6011 72.1406 22.7573C72.5885 22.9084 72.9714 23.1245 73.2891 23.4058C73.612 23.6818 73.8594 24.0125 74.0312 24.3979C74.2083 24.7834 74.2969 25.2078 74.2969 25.6714C74.2969 26.1089 74.2083 26.5125 74.0312 26.8823C73.8594 27.2469 73.612 27.562 73.2891 27.8276C72.9714 28.0933 72.5885 28.3016 72.1406 28.4526C71.6979 28.6037 71.2057 28.6792 70.6641 28.6792H69.0391ZM69.0391 26.9448H70.6641C70.8984 26.9448 71.1042 26.911 71.2812 26.8433C71.4635 26.7703 71.6146 26.6766 71.7344 26.562C71.8594 26.4422 71.9531 26.3068 72.0156 26.1558C72.0833 26.0047 72.1172 25.8485 72.1172 25.687C72.1172 25.4943 72.0833 25.312 72.0156 25.1401C71.9531 24.9683 71.8594 24.8172 71.7344 24.687C71.6146 24.5568 71.4635 24.4552 71.2812 24.3823C71.1042 24.3042 70.8984 24.2651 70.6641 24.2651H69.0391V26.9448ZM82.9375 27.7651H78.6484V29.8979H83.6094V31.6245H76.4688V22.5229H83.6562V24.2651H78.6484V26.0229H82.9375V27.7651Z" fill="black"/>
<path d="M56.0469 0.152832L63.4194 10.0094L63.0558 10.2693H62.375L56.0469 1.80911L49.7188 10.2693H49.0379L48.6743 10.0094L56.0469 0.152832Z" fill="black"/>
</svg>
