<svg width="161" height="66" viewBox="0 0 161 66" fill="none" xmlns="http://www.w3.org/2000/svg">
<path d="M86.5 9.62769H160V64.8474H1V9.62769H73.5" stroke="black"/>
<path d="M44.3359 31.2734H40.7734L40.1484 33H37.9297L41.4844 23.8984H43.5938L47.1953 33H44.9844L44.3359 31.2734ZM41.3516 29.6797H43.7422L42.5312 26.4297L41.3516 29.6797ZM50.8203 31.2734H56.1719V33H48.625V23.8984H50.8203V31.2734ZM60.4297 31.2734H65.7812V33H58.2344V23.8984H60.4297V31.2734ZM84.9688 29.2188C84.9688 29.776 84.8724 30.2943 84.6797 30.7734C84.487 31.2474 84.2161 31.6589 83.8672 32.0078C83.5182 32.3568 83.099 32.6302 82.6094 32.8281C82.125 33.026 81.5885 33.125 81 33.125C80.3958 33.125 79.849 33.026 79.3594 32.8281C78.8698 32.6302 78.4505 32.3568 78.1016 32.0078C77.7526 31.6589 77.4818 31.2474 77.2891 30.7734C77.1016 30.2943 77.0078 29.776 77.0078 29.2188V27.6953C77.0078 27.138 77.1016 26.6198 77.2891 26.1406C77.4766 25.6615 77.7448 25.2474 78.0938 24.8984C78.4427 24.5443 78.8594 24.2682 79.3438 24.0703C79.8333 23.8724 80.3802 23.7734 80.9844 23.7734C81.5729 23.7734 82.1094 23.8724 82.5938 24.0703C83.0833 24.2682 83.5026 24.5443 83.8516 24.8984C84.2057 25.2474 84.4792 25.6615 84.6719 26.1406C84.8698 26.6198 84.9688 27.138 84.9688 27.6953V29.2188ZM82.7891 27.6875C82.7891 27.375 82.75 27.0859 82.6719 26.8203C82.5938 26.5547 82.4766 26.3229 82.3203 26.125C82.1693 25.9271 81.9818 25.7734 81.7578 25.6641C81.5339 25.5495 81.276 25.4922 80.9844 25.4922C80.6719 25.4922 80.4036 25.5495 80.1797 25.6641C79.9557 25.7734 79.7708 25.9271 79.625 26.125C79.4792 26.3229 79.3698 26.5573 79.2969 26.8281C79.2292 27.0938 79.1953 27.3802 79.1953 27.6875V29.2188C79.1953 29.526 79.2292 29.8151 79.2969 30.0859C79.3698 30.3516 79.4792 30.5833 79.625 30.7812C79.776 30.9792 79.9635 31.138 80.1875 31.2578C80.4167 31.3724 80.6875 31.4297 81 31.4297C81.2865 31.4297 81.5417 31.3724 81.7656 31.2578C81.9896 31.1432 82.1771 30.987 82.3281 30.7891C82.4792 30.5859 82.5938 30.3516 82.6719 30.0859C82.75 29.8151 82.7891 29.526 82.7891 29.2188V27.6875ZM93.6875 29.3984H89.3047V33H87.1172V23.8984H94.1875V25.6406H89.3047V27.6562H93.6875V29.3984ZM109.883 28.4297L111.352 23.8984H113.758V33H111.773V27.4219L110.602 31.0938L109.18 31.0859L107.945 27.2656V33H105.961V23.8984H108.43L109.883 28.4297ZM119.539 27.9688L121.625 23.8984H123.992L120.609 29.8203V33H118.422V29.75L115.086 23.8984H117.461L119.539 27.9688ZM40.8359 47.3984H36.4531V51H34.2656V41.8984H41.3359V43.6406H36.4531V45.6562H40.8359V47.3984ZM49.1406 49.2734H45.5781L44.9531 51H42.7344L46.2891 41.8984H48.3984L52 51H49.7891L49.1406 49.2734ZM46.1562 47.6797H48.5469L47.3359 44.4297L46.1562 47.6797ZM56.9609 48.4922L57.0703 48.9922L57.1719 48.5078L59.3438 41.8984H61.6328L58.2344 51H55.9062L52.5234 41.8984H54.8125L56.9609 48.4922ZM70.5547 47.2188C70.5547 47.776 70.4583 48.2943 70.2656 48.7734C70.0729 49.2474 69.8021 49.6589 69.4531 50.0078C69.1042 50.3568 68.6849 50.6302 68.1953 50.8281C67.7109 51.026 67.1745 51.125 66.5859 51.125C65.9818 51.125 65.4349 51.026 64.9453 50.8281C64.4557 50.6302 64.0365 50.3568 63.6875 50.0078C63.3385 49.6589 63.0677 49.2474 62.875 48.7734C62.6875 48.2943 62.5938 47.776 62.5938 47.2188V45.6953C62.5938 45.138 62.6875 44.6198 62.875 44.1406C63.0625 43.6615 63.3307 43.2474 63.6797 42.8984C64.0286 42.5443 64.4453 42.2682 64.9297 42.0703C65.4193 41.8724 65.9661 41.7734 66.5703 41.7734C67.1589 41.7734 67.6953 41.8724 68.1797 42.0703C68.6693 42.2682 69.0885 42.5443 69.4375 42.8984C69.7917 43.2474 70.0651 43.6615 70.2578 44.1406C70.4557 44.6198 70.5547 45.138 70.5547 45.6953V47.2188ZM68.375 45.6875C68.375 45.375 68.3359 45.0859 68.2578 44.8203C68.1797 44.5547 68.0625 44.3229 67.9062 44.125C67.7552 43.9271 67.5677 43.7734 67.3438 43.6641C67.1198 43.5495 66.862 43.4922 66.5703 43.4922C66.2578 43.4922 65.9896 43.5495 65.7656 43.6641C65.5417 43.7734 65.3568 43.9271 65.2109 44.125C65.0651 44.3229 64.9557 44.5573 64.8828 44.8281C64.8151 45.0938 64.7812 45.3802 64.7812 45.6875V47.2188C64.7812 47.526 64.8151 47.8151 64.8828 48.0859C64.9557 48.3516 65.0651 48.5833 65.2109 48.7812C65.362 48.9792 65.5495 49.138 65.7734 49.2578C66.0026 49.3724 66.2734 49.4297 66.5859 49.4297C66.8724 49.4297 67.1276 49.3724 67.3516 49.2578C67.5755 49.1432 67.763 48.987 67.9141 48.7891C68.0651 48.5859 68.1797 48.3516 68.2578 48.0859C68.3359 47.8151 68.375 47.526 68.375 47.2188V45.6875ZM79.9141 41.8984V47.8281C79.9141 48.3594 79.8229 48.8307 79.6406 49.2422C79.4635 49.6484 79.2135 49.9922 78.8906 50.2734C78.5729 50.5547 78.1901 50.7682 77.7422 50.9141C77.2995 51.0547 76.8099 51.125 76.2734 51.125C75.737 51.125 75.2448 51.0547 74.7969 50.9141C74.349 50.7682 73.9635 50.5547 73.6406 50.2734C73.3177 49.9922 73.0651 49.6484 72.8828 49.2422C72.7057 48.8307 72.6172 48.3594 72.6172 47.8281V41.8984H74.7812V47.8281C74.7865 48.3698 74.9167 48.7656 75.1719 49.0156C75.4323 49.2604 75.7995 49.3828 76.2734 49.3828C76.7474 49.3828 77.1068 49.2604 77.3516 49.0156C77.6016 48.7656 77.7266 48.3698 77.7266 47.8281L77.7344 41.8984H79.9141ZM85.8203 47.8203H84.3281V51H82.1484V41.8984H85.8906C86.4271 41.8984 86.9193 41.9557 87.3672 42.0703C87.8151 42.1849 88.2005 42.3568 88.5234 42.5859C88.8464 42.8151 89.0964 43.1016 89.2734 43.4453C89.4505 43.7839 89.5391 44.1823 89.5391 44.6406C89.5391 45 89.4974 45.3177 89.4141 45.5938C89.3307 45.8646 89.2135 46.1042 89.0625 46.3125C88.9115 46.5156 88.7292 46.6927 88.5156 46.8438C88.3021 46.9948 88.0677 47.1276 87.8125 47.2422L89.8984 50.9141V51H87.5625L85.8203 47.8203ZM84.3281 46.0781H85.8906C86.349 46.0729 86.7083 45.9714 86.9688 45.7734C87.2344 45.5703 87.3698 45.2682 87.375 44.8672C87.375 44.4661 87.2422 44.1667 86.9766 43.9688C86.7109 43.7656 86.349 43.6641 85.8906 43.6641H84.3281V46.0781ZM92.1875 41.9062H98.6797V43.6719H96.5V49.2344H98.6797V51H92.1875V49.2344H94.3125V43.6719H92.1875V41.9062ZM109.422 43.6406H106.211V51H104.016V43.6406H100.875V41.8984H109.422V43.6406ZM117.547 47.1406H113.258V49.2734H118.219V51H111.078V41.8984H118.266V43.6406H113.258V45.3984H117.547V47.1406ZM126.078 48.5312C126.078 48.3698 126.036 48.2292 125.953 48.1094C125.875 47.9896 125.755 47.8828 125.594 47.7891C125.432 47.6901 125.232 47.6016 124.992 47.5234C124.753 47.4453 124.474 47.3698 124.156 47.2969C123.615 47.1562 123.133 47.0156 122.711 46.875C122.294 46.7292 121.943 46.5521 121.656 46.3438C121.37 46.1354 121.154 45.8802 121.008 45.5781C120.862 45.2708 120.789 44.8906 120.789 44.4375C120.789 44.0104 120.88 43.6328 121.062 43.3047C121.25 42.9714 121.505 42.6927 121.828 42.4688C122.151 42.2396 122.529 42.0677 122.961 41.9531C123.398 41.8333 123.867 41.7734 124.367 41.7734C124.888 41.7734 125.375 41.8255 125.828 41.9297C126.281 42.0339 126.674 42.2005 127.008 42.4297C127.346 42.6536 127.612 42.9479 127.805 43.3125C127.997 43.6771 128.099 44.1172 128.109 44.6328H125.93C125.93 44.4557 125.891 44.2917 125.812 44.1406C125.734 43.9844 125.625 43.8516 125.484 43.7422C125.344 43.6328 125.18 43.5469 124.992 43.4844C124.805 43.4219 124.602 43.3906 124.383 43.3906C124.138 43.3906 123.922 43.4167 123.734 43.4688C123.547 43.5208 123.388 43.5938 123.258 43.6875C123.128 43.776 123.029 43.8802 122.961 44C122.893 44.1146 122.859 44.2344 122.859 44.3594C122.859 44.5208 122.891 44.6589 122.953 44.7734C123.016 44.8828 123.117 44.9818 123.258 45.0703C123.404 45.1536 123.591 45.2318 123.82 45.3047C124.049 45.3776 124.331 45.4531 124.664 45.5312C125.201 45.6562 125.685 45.7969 126.117 45.9531C126.549 46.1042 126.917 46.2917 127.219 46.5156C127.521 46.7344 127.753 47.0026 127.914 47.3203C128.076 47.638 128.156 48.026 128.156 48.4844C128.156 48.9323 128.06 49.3229 127.867 49.6562C127.68 49.9844 127.417 50.2578 127.078 50.4766C126.745 50.6953 126.346 50.8594 125.883 50.9688C125.424 51.0729 124.924 51.125 124.383 51.125C124.065 51.125 123.747 51.1042 123.43 51.0625C123.117 51.026 122.815 50.9635 122.523 50.875C122.237 50.7812 121.969 50.6589 121.719 50.5078C121.469 50.3568 121.25 50.1719 121.062 49.9531C120.88 49.7344 120.734 49.4792 120.625 49.1875C120.521 48.8906 120.466 48.5495 120.461 48.1641H122.641C122.641 48.4245 122.688 48.6432 122.781 48.8203C122.88 48.9922 123.013 49.1302 123.18 49.2344C123.346 49.3385 123.542 49.4141 123.766 49.4609C123.99 49.5078 124.229 49.5312 124.484 49.5312C124.75 49.5312 124.982 49.5026 125.18 49.4453C125.378 49.388 125.542 49.3125 125.672 49.2188C125.807 49.125 125.909 49.0182 125.977 48.8984C126.044 48.7786 126.078 48.6562 126.078 48.5312Z" fill="black"/>
<path d="M80.0469 0L87.4194 9.85652L87.0558 10.1165H86.375L80.0469 1.65628L73.7188 10.1165H73.0379L72.6743 9.85652L80.0469 0Z" fill="black"/>
</svg>
