<svg width="215" height="66" viewBox="0 0 215 66" fill="none" xmlns="http://www.w3.org/2000/svg">
<path fill-rule="evenodd" clip-rule="evenodd" d="M0.5 9.5H100.5V10.5H1.5V64.5H213.5V10.5H113.374V9.5H214.5V65.5H0.5V9.5Z" fill="black"/>
<path d="M107.047 0L114.419 9.85652L114.056 10.1165H113.375L107.047 1.65628L100.719 10.1165H100.038L99.6743 9.85652L107.047 0Z" fill="black"/>
<path d="M49.4375 26.6406H46.2266V34H44.0312V26.6406H40.8906V24.8984H49.4375V26.6406Z" fill="black"/>
<path d="M58.0312 34H55.8672V30.4609H53.1172V34H50.9531V24.8984H53.1172V28.7188H55.8672V24.8984H58.0312V34Z" fill="black"/>
<path d="M66.0312 32.2734H62.4688L61.8438 34H59.625L63.1797 24.8984H65.2891L68.8906 34H66.6797L66.0312 32.2734ZM63.0469 30.6797H65.4375L64.2266 27.4297L63.0469 30.6797Z" fill="black"/>
<path d="M78.2656 26.6406H75.0547V34H72.8594V26.6406H69.7188V24.8984H78.2656V26.6406Z" fill="black"/>
<path d="M84.7344 23.1641C84.7344 23.4297 84.6979 23.7057 84.625 23.9922C84.5521 24.2734 84.4505 24.5495 84.3203 24.8203C84.1901 25.0859 84.0391 25.3411 83.8672 25.5859C83.6953 25.8255 83.5078 26.0365 83.3047 26.2188L82.3125 25.6016C82.5104 25.263 82.6719 24.8984 82.7969 24.5078C82.9271 24.1172 82.9922 23.6693 82.9922 23.1641V21.8125H84.7344V23.1641Z" fill="black"/>
<path d="M94.9219 31.5312C94.9219 31.3698 94.8802 31.2292 94.7969 31.1094C94.7188 30.9896 94.599 30.8828 94.4375 30.7891C94.276 30.6901 94.0755 30.6016 93.8359 30.5234C93.5964 30.4453 93.3177 30.3698 93 30.2969C92.4583 30.1562 91.9766 30.0156 91.5547 29.875C91.138 29.7292 90.7865 29.5521 90.5 29.3438C90.2135 29.1354 89.9974 28.8802 89.8516 28.5781C89.7057 28.2708 89.6328 27.8906 89.6328 27.4375C89.6328 27.0104 89.724 26.6328 89.9062 26.3047C90.0938 25.9714 90.349 25.6927 90.6719 25.4688C90.9948 25.2396 91.3724 25.0677 91.8047 24.9531C92.2422 24.8333 92.7109 24.7734 93.2109 24.7734C93.7318 24.7734 94.2188 24.8255 94.6719 24.9297C95.125 25.0339 95.5182 25.2005 95.8516 25.4297C96.1901 25.6536 96.4557 25.9479 96.6484 26.3125C96.8411 26.6771 96.9427 27.1172 96.9531 27.6328H94.7734C94.7734 27.4557 94.7344 27.2917 94.6562 27.1406C94.5781 26.9844 94.4688 26.8516 94.3281 26.7422C94.1875 26.6328 94.0234 26.5469 93.8359 26.4844C93.6484 26.4219 93.4453 26.3906 93.2266 26.3906C92.9818 26.3906 92.7656 26.4167 92.5781 26.4688C92.3906 26.5208 92.2318 26.5938 92.1016 26.6875C91.9714 26.776 91.8724 26.8802 91.8047 27C91.737 27.1146 91.7031 27.2344 91.7031 27.3594C91.7031 27.5208 91.7344 27.6589 91.7969 27.7734C91.8594 27.8828 91.9609 27.9818 92.1016 28.0703C92.2474 28.1536 92.4349 28.2318 92.6641 28.3047C92.8932 28.3776 93.1745 28.4531 93.5078 28.5312C94.0443 28.6562 94.5286 28.7969 94.9609 28.9531C95.3932 29.1042 95.7604 29.2917 96.0625 29.5156C96.3646 29.7344 96.5964 30.0026 96.7578 30.3203C96.9193 30.638 97 31.026 97 31.4844C97 31.9323 96.9036 32.3229 96.7109 32.6562C96.5234 32.9844 96.2604 33.2578 95.9219 33.4766C95.5885 33.6953 95.1901 33.8594 94.7266 33.9688C94.2682 34.0729 93.7682 34.125 93.2266 34.125C92.9089 34.125 92.5911 34.1042 92.2734 34.0625C91.9609 34.026 91.6589 33.9635 91.3672 33.875C91.0807 33.7812 90.8125 33.6589 90.5625 33.5078C90.3125 33.3568 90.0938 33.1719 89.9062 32.9531C89.724 32.7344 89.5781 32.4792 89.4688 32.1875C89.3646 31.8906 89.3099 31.5495 89.3047 31.1641H91.4844C91.4844 31.4245 91.5312 31.6432 91.625 31.8203C91.724 31.9922 91.8568 32.1302 92.0234 32.2344C92.1901 32.3385 92.3854 32.4141 92.6094 32.4609C92.8333 32.5078 93.0729 32.5312 93.3281 32.5312C93.5938 32.5312 93.8255 32.5026 94.0234 32.4453C94.2214 32.388 94.3854 32.3125 94.5156 32.2188C94.651 32.125 94.7526 32.0182 94.8203 31.8984C94.888 31.7786 94.9219 31.6562 94.9219 31.5312Z" fill="black"/>
<path d="M112.359 29.4297L113.828 24.8984H116.234V34H114.25V28.4219L113.078 32.0938L111.656 32.0859L110.422 28.2656V34H108.438V24.8984H110.906L112.359 29.4297Z" fill="black"/>
<path d="M122.016 28.9688L124.102 24.8984H126.469L123.086 30.8203V34H120.898V30.75L117.562 24.8984H119.938L122.016 28.9688Z" fill="black"/>
<path d="M144.484 34H142.328L139.719 28.5469L139.727 34H137.57V24.8984H139.727L142.328 30.3594L142.32 24.8984H144.484V34Z" fill="black"/>
<path d="M152.516 32.2734H148.953L148.328 34H146.109L149.664 24.8984H151.773L155.375 34H153.164L152.516 32.2734ZM149.531 30.6797H151.922L150.711 27.4297L149.531 30.6797Z" fill="black"/>
<path d="M160.406 29.4297L161.875 24.8984H164.281V34H162.297V28.4219L161.125 32.0938L159.703 32.0859L158.469 28.2656V34H156.484V24.8984H158.953L160.406 29.4297Z" fill="black"/>
<path d="M172.875 30.1406H168.586V32.2734H173.547V34H166.406V24.8984H173.594V26.6406H168.586V28.3984H172.875V30.1406Z" fill="black"/>
<path d="M27.0469 52V42.8984H30.5625C31.1302 42.8984 31.6641 43 32.1641 43.2031C32.6641 43.401 33.099 43.6745 33.4688 44.0234C33.8438 44.3672 34.1406 44.7786 34.3594 45.2578C34.5781 45.7318 34.6875 46.2474 34.6875 46.8047V48.1172C34.6875 48.6797 34.5781 49.1979 34.3594 49.6719C34.1406 50.1458 33.8464 50.5547 33.4766 50.8984C33.1068 51.2422 32.6771 51.513 32.1875 51.7109C31.7031 51.9036 31.1901 52 30.6484 52H27.0469ZM29.2188 44.6406V50.2734H30.6484C30.9193 50.2734 31.1667 50.224 31.3906 50.125C31.6198 50.0208 31.8151 49.8776 31.9766 49.6953C32.1432 49.5078 32.2734 49.2812 32.3672 49.0156C32.4609 48.75 32.5078 48.4505 32.5078 48.1172V46.7969C32.5078 46.4896 32.4609 46.2057 32.3672 45.9453C32.2786 45.6797 32.151 45.4505 31.9844 45.2578C31.8177 45.0651 31.6146 44.9141 31.375 44.8047C31.1354 44.6953 30.8646 44.6406 30.5625 44.6406H29.2188Z" fill="black"/>
<path d="M44.2031 48.2188C44.2031 48.776 44.1068 49.2943 43.9141 49.7734C43.7214 50.2474 43.4505 50.6589 43.1016 51.0078C42.7526 51.3568 42.3333 51.6302 41.8438 51.8281C41.3594 52.026 40.8229 52.125 40.2344 52.125C39.6302 52.125 39.0833 52.026 38.5938 51.8281C38.1042 51.6302 37.6849 51.3568 37.3359 51.0078C36.987 50.6589 36.7161 50.2474 36.5234 49.7734C36.3359 49.2943 36.2422 48.776 36.2422 48.2188V46.6953C36.2422 46.138 36.3359 45.6198 36.5234 45.1406C36.7109 44.6615 36.9792 44.2474 37.3281 43.8984C37.6771 43.5443 38.0938 43.2682 38.5781 43.0703C39.0677 42.8724 39.6146 42.7734 40.2188 42.7734C40.8073 42.7734 41.3438 42.8724 41.8281 43.0703C42.3177 43.2682 42.737 43.5443 43.0859 43.8984C43.4401 44.2474 43.7135 44.6615 43.9062 45.1406C44.1042 45.6198 44.2031 46.138 44.2031 46.6953V48.2188ZM42.0234 46.6875C42.0234 46.375 41.9844 46.0859 41.9062 45.8203C41.8281 45.5547 41.7109 45.3229 41.5547 45.125C41.4036 44.9271 41.2161 44.7734 40.9922 44.6641C40.7682 44.5495 40.5104 44.4922 40.2188 44.4922C39.9062 44.4922 39.638 44.5495 39.4141 44.6641C39.1901 44.7734 39.0052 44.9271 38.8594 45.125C38.7135 45.3229 38.6042 45.5573 38.5312 45.8281C38.4635 46.0938 38.4297 46.3802 38.4297 46.6875V48.2188C38.4297 48.526 38.4635 48.8151 38.5312 49.0859C38.6042 49.3516 38.7135 49.5833 38.8594 49.7812C39.0104 49.9792 39.1979 50.138 39.4219 50.2578C39.651 50.3724 39.9219 50.4297 40.2344 50.4297C40.5208 50.4297 40.776 50.3724 41 50.2578C41.224 50.1432 41.4115 49.987 41.5625 49.7891C41.7135 49.5859 41.8281 49.3516 41.9062 49.0859C41.9844 48.8151 42.0234 48.526 42.0234 48.2188V46.6875Z" fill="black"/>
<path d="M53.1953 52H51.0391L48.4297 46.5469L48.4375 52H46.2812V42.8984H48.4375L51.0391 48.3594L51.0312 42.8984H53.1953V52Z" fill="black"/>
<path d="M60.7109 41.1641C60.7109 41.4297 60.6745 41.7057 60.6016 41.9922C60.5286 42.2734 60.4271 42.5495 60.2969 42.8203C60.1667 43.0859 60.0156 43.3411 59.8438 43.5859C59.6719 43.8255 59.4844 44.0365 59.2812 44.2188L58.2891 43.6016C58.487 43.263 58.6484 42.8984 58.7734 42.5078C58.9036 42.1172 58.9688 41.6693 58.9688 41.1641V39.8125H60.7109V41.1641Z" fill="black"/>
<path d="M73.4609 44.6406H70.25V52H68.0547V44.6406H64.9141V42.8984H73.4609V44.6406Z" fill="black"/>
<path d="M89.9219 47.4453L90.5625 42.8984H92.5938L91 52H89.0156L88.1484 47.3594L87.3281 52H85.3438L83.7344 42.8984H85.7891L86.4141 47.3281L87.1484 42.8984H89.1406L89.9219 47.4453Z" fill="black"/>
<path d="M100.805 48.1406H96.5156V50.2734H101.477V52H94.3359V42.8984H101.523V44.6406H96.5156V46.3984H100.805V48.1406Z" fill="black"/>
<path d="M109.273 50.2734H105.711L105.086 52H102.867L106.422 42.8984H108.531L112.133 52H109.922L109.273 50.2734ZM106.289 48.6797H108.68L107.469 45.4297L106.289 48.6797Z" fill="black"/>
<path d="M117.125 48.8203H115.633V52H113.453V42.8984H117.195C117.732 42.8984 118.224 42.9557 118.672 43.0703C119.12 43.1849 119.505 43.3568 119.828 43.5859C120.151 43.8151 120.401 44.1016 120.578 44.4453C120.755 44.7839 120.844 45.1823 120.844 45.6406C120.844 46 120.802 46.3177 120.719 46.5938C120.635 46.8646 120.518 47.1042 120.367 47.3125C120.216 47.5156 120.034 47.6927 119.82 47.8438C119.607 47.9948 119.372 48.1276 119.117 48.2422L121.203 51.9141V52H118.867L117.125 48.8203ZM115.633 47.0781H117.195C117.654 47.0729 118.013 46.9714 118.273 46.7734C118.539 46.5703 118.674 46.2682 118.68 45.8672C118.68 45.4661 118.547 45.1667 118.281 44.9688C118.016 44.7656 117.654 44.6641 117.195 44.6641H115.633V47.0781Z" fill="black"/>
<path d="M133.102 42.9062H139.594V44.6719H137.414V50.2344H139.594V52H133.102V50.2344H135.227V44.6719H133.102V42.9062Z" fill="black"/>
<path d="M150.336 44.6406H147.125V52H144.93V44.6406H141.789V42.8984H150.336V44.6406Z" fill="black"/>
<path d="M169.125 48.2188C169.125 48.776 169.029 49.2943 168.836 49.7734C168.643 50.2474 168.372 50.6589 168.023 51.0078C167.674 51.3568 167.255 51.6302 166.766 51.8281C166.281 52.026 165.745 52.125 165.156 52.125C164.552 52.125 164.005 52.026 163.516 51.8281C163.026 51.6302 162.607 51.3568 162.258 51.0078C161.909 50.6589 161.638 50.2474 161.445 49.7734C161.258 49.2943 161.164 48.776 161.164 48.2188V46.6953C161.164 46.138 161.258 45.6198 161.445 45.1406C161.633 44.6615 161.901 44.2474 162.25 43.8984C162.599 43.5443 163.016 43.2682 163.5 43.0703C163.99 42.8724 164.536 42.7734 165.141 42.7734C165.729 42.7734 166.266 42.8724 166.75 43.0703C167.24 43.2682 167.659 43.5443 168.008 43.8984C168.362 44.2474 168.635 44.6615 168.828 45.1406C169.026 45.6198 169.125 46.138 169.125 46.6953V48.2188ZM166.945 46.6875C166.945 46.375 166.906 46.0859 166.828 45.8203C166.75 45.5547 166.633 45.3229 166.477 45.125C166.326 44.9271 166.138 44.7734 165.914 44.6641C165.69 44.5495 165.432 44.4922 165.141 44.4922C164.828 44.4922 164.56 44.5495 164.336 44.6641C164.112 44.7734 163.927 44.9271 163.781 45.125C163.635 45.3229 163.526 45.5573 163.453 45.8281C163.385 46.0938 163.352 46.3802 163.352 46.6875V48.2188C163.352 48.526 163.385 48.8151 163.453 49.0859C163.526 49.3516 163.635 49.5833 163.781 49.7812C163.932 49.9792 164.12 50.138 164.344 50.2578C164.573 50.3724 164.844 50.4297 165.156 50.4297C165.443 50.4297 165.698 50.3724 165.922 50.2578C166.146 50.1432 166.333 49.987 166.484 49.7891C166.635 49.5859 166.75 49.3516 166.828 49.0859C166.906 48.8151 166.945 48.526 166.945 48.2188V46.6875Z" fill="black"/>
<path d="M178.484 42.8984V48.8281C178.484 49.3594 178.393 49.8307 178.211 50.2422C178.034 50.6484 177.784 50.9922 177.461 51.2734C177.143 51.5547 176.76 51.7682 176.312 51.9141C175.87 52.0547 175.38 52.125 174.844 52.125C174.307 52.125 173.815 52.0547 173.367 51.9141C172.919 51.7682 172.534 51.5547 172.211 51.2734C171.888 50.9922 171.635 50.6484 171.453 50.2422C171.276 49.8307 171.188 49.3594 171.188 48.8281V42.8984H173.352V48.8281C173.357 49.3698 173.487 49.7656 173.742 50.0156C174.003 50.2604 174.37 50.3828 174.844 50.3828C175.318 50.3828 175.677 50.2604 175.922 50.0156C176.172 49.7656 176.297 49.3698 176.297 48.8281L176.305 42.8984H178.484Z" fill="black"/>
<path d="M188.773 44.6406H185.562V52H183.367V44.6406H180.227V42.8984H188.773V44.6406Z" fill="black"/>
</svg>
