<svg width="111" height="44" viewBox="0 0 111 44" fill="none" xmlns="http://www.w3.org/2000/svg">
<rect y="9" width="111" height="35" fill="black"/>
<path d="M19.9922 29.0547V32H17.8203V22.8984H21.6172C22.1589 22.8984 22.651 22.9766 23.0938 23.1328C23.5417 23.2839 23.9245 23.5 24.2422 23.7812C24.5651 24.0573 24.8125 24.388 24.9844 24.7734C25.1615 25.1589 25.25 25.5833 25.25 26.0469C25.25 26.4844 25.1615 26.888 24.9844 27.2578C24.8125 27.6224 24.5651 27.9375 24.2422 28.2031C23.9245 28.4688 23.5417 28.6771 23.0938 28.8281C22.651 28.9792 22.1589 29.0547 21.6172 29.0547H19.9922ZM19.9922 27.3203H21.6172C21.8516 27.3203 22.0573 27.2865 22.2344 27.2188C22.4167 27.1458 22.5677 27.0521 22.6875 26.9375C22.8125 26.8177 22.9062 26.6823 22.9688 26.5312C23.0365 26.3802 23.0703 26.224 23.0703 26.0625C23.0703 25.8698 23.0365 25.6875 22.9688 25.5156C22.9062 25.3438 22.8125 25.1927 22.6875 25.0625C22.5677 24.9323 22.4167 24.8307 22.2344 24.7578C22.0573 24.6797 21.8516 24.6406 21.6172 24.6406H19.9922V27.3203ZM34.9453 28.2188C34.9453 28.776 34.849 29.2943 34.6562 29.7734C34.4635 30.2474 34.1927 30.6589 33.8438 31.0078C33.4948 31.3568 33.0755 31.6302 32.5859 31.8281C32.1016 32.026 31.5651 32.125 30.9766 32.125C30.3724 32.125 29.8255 32.026 29.3359 31.8281C28.8464 31.6302 28.4271 31.3568 28.0781 31.0078C27.7292 30.6589 27.4583 30.2474 27.2656 29.7734C27.0781 29.2943 26.9844 28.776 26.9844 28.2188V26.6953C26.9844 26.138 27.0781 25.6198 27.2656 25.1406C27.4531 24.6615 27.7214 24.2474 28.0703 23.8984C28.4193 23.5443 28.8359 23.2682 29.3203 23.0703C29.8099 22.8724 30.3568 22.7734 30.9609 22.7734C31.5495 22.7734 32.0859 22.8724 32.5703 23.0703C33.0599 23.2682 33.4792 23.5443 33.8281 23.8984C34.1823 24.2474 34.4557 24.6615 34.6484 25.1406C34.8464 25.6198 34.9453 26.138 34.9453 26.6953V28.2188ZM32.7656 26.6875C32.7656 26.375 32.7266 26.0859 32.6484 25.8203C32.5703 25.5547 32.4531 25.3229 32.2969 25.125C32.1458 24.9271 31.9583 24.7734 31.7344 24.6641C31.5104 24.5495 31.2526 24.4922 30.9609 24.4922C30.6484 24.4922 30.3802 24.5495 30.1562 24.6641C29.9323 24.7734 29.7474 24.9271 29.6016 25.125C29.4557 25.3229 29.3464 25.5573 29.2734 25.8281C29.2057 26.0938 29.1719 26.3802 29.1719 26.6875V28.2188C29.1719 28.526 29.2057 28.8151 29.2734 29.0859C29.3464 29.3516 29.4557 29.5833 29.6016 29.7812C29.7526 29.9792 29.9401 30.138 30.1641 30.2578C30.3932 30.3724 30.6641 30.4297 30.9766 30.4297C31.263 30.4297 31.5182 30.3724 31.7422 30.2578C31.9661 30.1432 32.1536 29.987 32.3047 29.7891C32.4557 29.5859 32.5703 29.3516 32.6484 29.0859C32.7266 28.8151 32.7656 28.526 32.7656 28.2188V26.6875ZM39.2344 30.2734H44.5859V32H37.0391V22.8984H39.2344V30.2734ZM51.9688 30.2734H48.4062L47.7812 32H45.5625L49.1172 22.8984H51.2266L54.8281 32H52.6172L51.9688 30.2734ZM48.9844 28.6797H51.375L50.1641 25.4297L48.9844 28.6797ZM59.8203 28.8203H58.3281V32H56.1484V22.8984H59.8906C60.4271 22.8984 60.9193 22.9557 61.3672 23.0703C61.8151 23.1849 62.2005 23.3568 62.5234 23.5859C62.8464 23.8151 63.0964 24.1016 63.2734 24.4453C63.4505 24.7839 63.5391 25.1823 63.5391 25.6406C63.5391 26 63.4974 26.3177 63.4141 26.5938C63.3307 26.8646 63.2135 27.1042 63.0625 27.3125C62.9115 27.5156 62.7292 27.6927 62.5156 27.8438C62.3021 27.9948 62.0677 28.1276 61.8125 28.2422L63.8984 31.9141V32H61.5625L59.8203 28.8203ZM58.3281 27.0781H59.8906C60.349 27.0729 60.7083 26.9714 60.9688 26.7734C61.2344 26.5703 61.3698 26.2682 61.375 25.8672C61.375 25.4661 61.2422 25.1667 60.9766 24.9688C60.7109 24.7656 60.349 24.6641 59.8906 24.6641H58.3281V27.0781ZM73.3828 28.2188C73.3828 28.776 73.2865 29.2943 73.0938 29.7734C72.901 30.2474 72.6302 30.6589 72.2812 31.0078C71.9323 31.3568 71.513 31.6302 71.0234 31.8281C70.5391 32.026 70.0026 32.125 69.4141 32.125C68.8099 32.125 68.263 32.026 67.7734 31.8281C67.2839 31.6302 66.8646 31.3568 66.5156 31.0078C66.1667 30.6589 65.8958 30.2474 65.7031 29.7734C65.5156 29.2943 65.4219 28.776 65.4219 28.2188V26.6953C65.4219 26.138 65.5156 25.6198 65.7031 25.1406C65.8906 24.6615 66.1589 24.2474 66.5078 23.8984C66.8568 23.5443 67.2734 23.2682 67.7578 23.0703C68.2474 22.8724 68.7943 22.7734 69.3984 22.7734C69.987 22.7734 70.5234 22.8724 71.0078 23.0703C71.4974 23.2682 71.9167 23.5443 72.2656 23.8984C72.6198 24.2474 72.8932 24.6615 73.0859 25.1406C73.2839 25.6198 73.3828 26.138 73.3828 26.6953V28.2188ZM71.2031 26.6875C71.2031 26.375 71.1641 26.0859 71.0859 25.8203C71.0078 25.5547 70.8906 25.3229 70.7344 25.125C70.5833 24.9271 70.3958 24.7734 70.1719 24.6641C69.9479 24.5495 69.6901 24.4922 69.3984 24.4922C69.0859 24.4922 68.8177 24.5495 68.5938 24.6641C68.3698 24.7734 68.1849 24.9271 68.0391 25.125C67.8932 25.3229 67.7839 25.5573 67.7109 25.8281C67.6432 26.0938 67.6094 26.3802 67.6094 26.6875V28.2188C67.6094 28.526 67.6432 28.8151 67.7109 29.0859C67.7839 29.3516 67.8932 29.5833 68.0391 29.7812C68.1901 29.9792 68.3776 30.138 68.6016 30.2578C68.8307 30.3724 69.1016 30.4297 69.4141 30.4297C69.7005 30.4297 69.9557 30.3724 70.1797 30.2578C70.4036 30.1432 70.5911 29.987 70.7422 29.7891C70.8932 29.5859 71.0078 29.3516 71.0859 29.0859C71.1641 28.8151 71.2031 28.526 71.2031 28.2188V26.6875ZM75.7969 22.9062H82.2891V24.6719H80.1094V30.2344H82.2891V32H75.7969V30.2344H77.9219V24.6719H75.7969V22.9062ZM85.0547 32V22.8984H88.5703C89.138 22.8984 89.6719 23 90.1719 23.2031C90.6719 23.401 91.1068 23.6745 91.4766 24.0234C91.8516 24.3672 92.1484 24.7786 92.3672 25.2578C92.5859 25.7318 92.6953 26.2474 92.6953 26.8047V28.1172C92.6953 28.6797 92.5859 29.1979 92.3672 29.6719C92.1484 30.1458 91.8542 30.5547 91.4844 30.8984C91.1146 31.2422 90.6849 31.513 90.1953 31.7109C89.7109 31.9036 89.1979 32 88.6562 32H85.0547ZM87.2266 24.6406V30.2734H88.6562C88.9271 30.2734 89.1745 30.224 89.3984 30.125C89.6276 30.0208 89.8229 29.8776 89.9844 29.6953C90.151 29.5078 90.2812 29.2812 90.375 29.0156C90.4688 28.75 90.5156 28.4505 90.5156 28.1172V26.7969C90.5156 26.4896 90.4688 26.2057 90.375 25.9453C90.2865 25.6797 90.1589 25.4505 89.9922 25.2578C89.8255 25.0651 89.6224 24.9141 89.3828 24.8047C89.1432 24.6953 88.8724 24.6406 88.5703 24.6406H87.2266Z" fill="white"/>
<path d="M55.0471 0L62.016 9.52941H48.0781L55.0471 0Z" fill="black"/>
</svg>
