<svg width="113" height="45" viewBox="0 0 113 45" fill="none" xmlns="http://www.w3.org/2000/svg">
<path d="M62.5 9.62744H112V43.8471H1V9.62744H49.5" stroke="black"/>
<path d="M20.9922 28.5264V31.4717H18.8203V22.3701H22.6172C23.1589 22.3701 23.651 22.4482 24.0938 22.6045C24.5417 22.7555 24.9245 22.9717 25.2422 23.2529C25.5651 23.529 25.8125 23.8597 25.9844 24.2451C26.1615 24.6305 26.25 25.055 26.25 25.5186C26.25 25.9561 26.1615 26.3597 25.9844 26.7295C25.8125 27.0941 25.5651 27.4092 25.2422 27.6748C24.9245 27.9404 24.5417 28.1488 24.0938 28.2998C23.651 28.4508 23.1589 28.5264 22.6172 28.5264H20.9922ZM20.9922 26.792H22.6172C22.8516 26.792 23.0573 26.7581 23.2344 26.6904C23.4167 26.6175 23.5677 26.5238 23.6875 26.4092C23.8125 26.2894 23.9062 26.154 23.9688 26.0029C24.0365 25.8519 24.0703 25.6956 24.0703 25.5342C24.0703 25.3415 24.0365 25.1592 23.9688 24.9873C23.9062 24.8154 23.8125 24.6644 23.6875 24.5342C23.5677 24.404 23.4167 24.3024 23.2344 24.2295C23.0573 24.1514 22.8516 24.1123 22.6172 24.1123H20.9922V26.792ZM35.9453 27.6904C35.9453 28.2477 35.849 28.766 35.6562 29.2451C35.4635 29.7191 35.1927 30.1305 34.8438 30.4795C34.4948 30.8285 34.0755 31.1019 33.5859 31.2998C33.1016 31.4977 32.5651 31.5967 31.9766 31.5967C31.3724 31.5967 30.8255 31.4977 30.3359 31.2998C29.8464 31.1019 29.4271 30.8285 29.0781 30.4795C28.7292 30.1305 28.4583 29.7191 28.2656 29.2451C28.0781 28.766 27.9844 28.2477 27.9844 27.6904V26.167C27.9844 25.6097 28.0781 25.0915 28.2656 24.6123C28.4531 24.1331 28.7214 23.7191 29.0703 23.3701C29.4193 23.016 29.8359 22.7399 30.3203 22.542C30.8099 22.3441 31.3568 22.2451 31.9609 22.2451C32.5495 22.2451 33.0859 22.3441 33.5703 22.542C34.0599 22.7399 34.4792 23.016 34.8281 23.3701C35.1823 23.7191 35.4557 24.1331 35.6484 24.6123C35.8464 25.0915 35.9453 25.6097 35.9453 26.167V27.6904ZM33.7656 26.1592C33.7656 25.8467 33.7266 25.5576 33.6484 25.292C33.5703 25.0264 33.4531 24.7946 33.2969 24.5967C33.1458 24.3988 32.9583 24.2451 32.7344 24.1357C32.5104 24.0212 32.2526 23.9639 31.9609 23.9639C31.6484 23.9639 31.3802 24.0212 31.1562 24.1357C30.9323 24.2451 30.7474 24.3988 30.6016 24.5967C30.4557 24.7946 30.3464 25.029 30.2734 25.2998C30.2057 25.5654 30.1719 25.8519 30.1719 26.1592V27.6904C30.1719 27.9977 30.2057 28.2868 30.2734 28.5576C30.3464 28.8232 30.4557 29.055 30.6016 29.2529C30.7526 29.4508 30.9401 29.6097 31.1641 29.7295C31.3932 29.8441 31.6641 29.9014 31.9766 29.9014C32.263 29.9014 32.5182 29.8441 32.7422 29.7295C32.9661 29.6149 33.1536 29.4587 33.3047 29.2607C33.4557 29.0576 33.5703 28.8232 33.6484 28.5576C33.7266 28.2868 33.7656 27.9977 33.7656 27.6904V26.1592ZM40.2344 29.7451H45.5859V31.4717H38.0391V22.3701H40.2344V29.7451ZM52.9688 29.7451H49.4062L48.7812 31.4717H46.5625L50.1172 22.3701H52.2266L55.8281 31.4717H53.6172L52.9688 29.7451ZM49.9844 28.1514H52.375L51.1641 24.9014L49.9844 28.1514ZM60.8203 28.292H59.3281V31.4717H57.1484V22.3701H60.8906C61.4271 22.3701 61.9193 22.4274 62.3672 22.542C62.8151 22.6566 63.2005 22.8285 63.5234 23.0576C63.8464 23.2868 64.0964 23.5732 64.2734 23.917C64.4505 24.2555 64.5391 24.654 64.5391 25.1123C64.5391 25.4717 64.4974 25.7894 64.4141 26.0654C64.3307 26.3363 64.2135 26.5758 64.0625 26.7842C63.9115 26.9873 63.7292 27.1644 63.5156 27.3154C63.3021 27.4665 63.0677 27.5993 62.8125 27.7139L64.8984 31.3857V31.4717H62.5625L60.8203 28.292ZM59.3281 26.5498H60.8906C61.349 26.5446 61.7083 26.443 61.9688 26.2451C62.2344 26.042 62.3698 25.7399 62.375 25.3389C62.375 24.9378 62.2422 24.6383 61.9766 24.4404C61.7109 24.2373 61.349 24.1357 60.8906 24.1357H59.3281V26.5498ZM74.3828 27.6904C74.3828 28.2477 74.2865 28.766 74.0938 29.2451C73.901 29.7191 73.6302 30.1305 73.2812 30.4795C72.9323 30.8285 72.513 31.1019 72.0234 31.2998C71.5391 31.4977 71.0026 31.5967 70.4141 31.5967C69.8099 31.5967 69.263 31.4977 68.7734 31.2998C68.2839 31.1019 67.8646 30.8285 67.5156 30.4795C67.1667 30.1305 66.8958 29.7191 66.7031 29.2451C66.5156 28.766 66.4219 28.2477 66.4219 27.6904V26.167C66.4219 25.6097 66.5156 25.0915 66.7031 24.6123C66.8906 24.1331 67.1589 23.7191 67.5078 23.3701C67.8568 23.016 68.2734 22.7399 68.7578 22.542C69.2474 22.3441 69.7943 22.2451 70.3984 22.2451C70.987 22.2451 71.5234 22.3441 72.0078 22.542C72.4974 22.7399 72.9167 23.016 73.2656 23.3701C73.6198 23.7191 73.8932 24.1331 74.0859 24.6123C74.2839 25.0915 74.3828 25.6097 74.3828 26.167V27.6904ZM72.2031 26.1592C72.2031 25.8467 72.1641 25.5576 72.0859 25.292C72.0078 25.0264 71.8906 24.7946 71.7344 24.5967C71.5833 24.3988 71.3958 24.2451 71.1719 24.1357C70.9479 24.0212 70.6901 23.9639 70.3984 23.9639C70.0859 23.9639 69.8177 24.0212 69.5938 24.1357C69.3698 24.2451 69.1849 24.3988 69.0391 24.5967C68.8932 24.7946 68.7839 25.029 68.7109 25.2998C68.6432 25.5654 68.6094 25.8519 68.6094 26.1592V27.6904C68.6094 27.9977 68.6432 28.2868 68.7109 28.5576C68.7839 28.8232 68.8932 29.055 69.0391 29.2529C69.1901 29.4508 69.3776 29.6097 69.6016 29.7295C69.8307 29.8441 70.1016 29.9014 70.4141 29.9014C70.7005 29.9014 70.9557 29.8441 71.1797 29.7295C71.4036 29.6149 71.5911 29.4587 71.7422 29.2607C71.8932 29.0576 72.0078 28.8232 72.0859 28.5576C72.1641 28.2868 72.2031 27.9977 72.2031 27.6904V26.1592ZM76.7969 22.3779H83.2891V24.1436H81.1094V29.7061H83.2891V31.4717H76.7969V29.7061H78.9219V24.1436H76.7969V22.3779ZM86.0547 31.4717V22.3701H89.5703C90.138 22.3701 90.6719 22.4717 91.1719 22.6748C91.6719 22.8727 92.1068 23.1462 92.4766 23.4951C92.8516 23.8389 93.1484 24.2503 93.3672 24.7295C93.5859 25.2035 93.6953 25.7191 93.6953 26.2764V27.5889C93.6953 28.1514 93.5859 28.6696 93.3672 29.1436C93.1484 29.6175 92.8542 30.0264 92.4844 30.3701C92.1146 30.7139 91.6849 30.9847 91.1953 31.1826C90.7109 31.3753 90.1979 31.4717 89.6562 31.4717H86.0547ZM88.2266 24.1123V29.7451H89.6562C89.9271 29.7451 90.1745 29.6956 90.3984 29.5967C90.6276 29.4925 90.8229 29.3493 90.9844 29.167C91.151 28.9795 91.2812 28.7529 91.375 28.4873C91.4688 28.2217 91.5156 27.9222 91.5156 27.5889V26.2686C91.5156 25.9613 91.4688 25.6774 91.375 25.417C91.2865 25.1514 91.1589 24.9222 90.9922 24.7295C90.8255 24.5368 90.6224 24.3857 90.3828 24.2764C90.1432 24.167 89.8724 24.1123 89.5703 24.1123H88.2266Z" fill="black"/>
<path d="M56.0469 0L63.4194 9.85652L63.0558 10.1165H62.375L56.0469 1.65628L49.7188 10.1165H49.0379L48.6743 9.85652L56.0469 0Z" fill="black"/>
</svg>
