<svg width="232" height="262" viewBox="0 0 232 262" fill="none" xmlns="http://www.w3.org/2000/svg">
<path d="M33.0529 35.4043C51.4908 32.8633 68.3456 33.4565 86.9168 32.2739C101.107 31.3702 114.116 29.1227 128.341 29.6822C131.513 29.807 138.38 28.0867 141.208 29.6822C142.435 30.3742 132.942 34.7479 131.74 35.4043C111.52 46.4477 76.5924 45.4701 60.6684 62.4396C56.0022 67.4122 34.8626 88.7652 33.0529 95.6219C32.3633 98.2349 39.6914 121.126 42.0758 121.126C51.0987 121.126 82.5072 97.6044 91.5005 98.4693C107.858 100.042 180.446 36.5278 196.285 41.3236C198.982 42.1401 196.915 94.6549 199.566 95.6219C202.669 96.7536 139.21 112.951 138.234 113.262C124.498 117.635 110.58 122.089 97.9946 129.271C79.0579 140.078 57.997 153.914 43.9777 170.787C41.9064 173.28 39.6078 176.097 39.6078 179.492C39.6078 183.053 49.8154 180.677 51.5644 180.405C75.8005 176.639 99.2087 167.245 122.515 159.952C144.296 153.136 166.21 148.113 188.792 144.977C191.829 144.555 199.723 142.268 202.751 144.003C204.818 145.188 193.467 176.203 188.792 179.263C168.384 198.025 151.39 189.4 128.341 204.755C114.217 214.163 89.0315 192.485 74.6884 201.476C73.2744 202.362 28.3779 233 30.0453 233C37.5143 233 98.8406 228.918 105.521 226.304C126.154 218.228 137.201 226.304 159.1 226.304C161.741 226.304 198.042 229.361 199.566 226.304" stroke="#FCF7ED" stroke-width="58" stroke-linecap="round" stroke-linejoin="round"/>
</svg>
